<svg width="104" height="29" viewBox="0 0 104 29" fill="none" xmlns="http://www.w3.org/2000/svg">
<path d="M43.9758 21.2024C42.8333 21.8595 41.535 22.1961 40.2161 22.1732C35.9527 22.1732 33.4478 19.2103 33.4478 14.1867C33.4478 10.6148 34.8078 8.26096 36.6282 7.01994C37.773 6.28494 39.1033 5.88654 40.4634 5.87051C41.5052 5.86364 42.5356 6.09948 43.4721 6.562C44.017 6.85966 44.5231 7.22601 44.9764 7.6519L43.0073 10.3148C42.3639 9.6302 41.4961 9.20203 40.5642 9.10357C38.7438 9.10357 37.9333 10.6743 37.9333 14.3081C37.9333 16.3299 38.2035 17.5411 38.6843 18.2097C39.1377 18.7547 39.8177 19.0661 40.5275 19.0523C41.5854 18.9997 42.5814 18.5486 43.3164 17.7884L43.5568 17.5709L45.384 20.0529C44.9741 20.504 44.5002 20.891 43.9781 21.2024H43.9758Z" fill="#666666"/>
<path d="M57.4665 19.9912C56.1843 21.4566 54.2975 22.2488 52.3536 22.1412C48.1497 22.1412 45.3975 18.9906 45.3975 14.1249C45.3975 9.25932 48.1795 6.01939 52.3536 6.01939C54.3754 5.93467 56.3216 6.7956 57.6176 8.35031C58.8586 9.80198 59.399 11.4941 59.399 14.0059C59.399 16.6665 58.7968 18.48 57.4665 19.9912ZM54.167 9.83175C53.7457 9.29596 53.0955 8.99143 52.4154 9.01203C51.4492 9.01661 50.602 9.65544 50.3318 10.5828C50.0021 11.7024 49.8555 12.8679 49.8967 14.0334C49.8303 15.3545 50.0066 16.678 50.4165 17.9373C50.7966 18.7227 51.5957 19.2172 52.4704 19.2081C54.222 19.2081 54.9822 17.6282 54.9822 13.9441C54.989 11.8833 54.7189 10.5232 54.1693 9.83175H54.167Z" fill="#666666"/>
<path d="M70.7998 22.2326C70.2686 21.8503 69.8541 21.3305 69.5954 20.7283C68.4803 21.7404 67.0172 22.2784 65.5128 22.2326C63.333 22.2326 61.4601 21.2023 60.9403 19.7208C60.6587 18.7179 60.5465 17.6761 60.6083 16.6389V6.68096L64.6015 5.92993V15.8787C64.5329 16.7396 64.645 17.6051 64.9336 18.4203C65.2427 18.9034 65.7807 19.1896 66.3555 19.1713C67.3973 19.1392 68.3475 18.5691 68.8673 17.667V6.77941L72.7392 5.9597V17.7883C72.7277 18.8049 73.0574 19.7964 73.6802 20.6001L70.7998 22.2326Z" fill="#666666"/>
<path d="M86.681 20.3827C85.6117 21.5321 84.1051 22.171 82.5366 22.1412C81.4055 22.1526 80.2904 21.871 79.3036 21.3215C79.3562 21.7428 79.3769 22.1687 79.3631 22.5923V27.435L75.4592 28.4585V10.553C75.5095 9.24786 75.4271 7.94044 75.2188 6.65134L78.8136 6.01938C78.9556 6.49106 79.0471 6.97876 79.0838 7.47105C80.1027 6.48648 81.4811 5.96213 82.8961 6.01938C83.9975 6.01938 85.0736 6.3468 85.9872 6.95816C87.6564 8.07095 88.8677 10.0722 88.8677 13.6441C88.8311 16.9688 88.2815 18.6608 86.6787 20.3827H86.681ZM84.0204 10.6079C83.7571 9.77678 82.9557 9.2387 82.0879 9.30739C81.0667 9.31884 80.0958 9.74473 79.3952 10.4889V18.0083C80.0294 18.5464 80.8217 18.8623 81.6505 18.9104C83.6517 18.9104 84.4325 17.5503 84.4325 14.015C84.4714 12.8679 84.3318 11.7207 84.0181 10.6171V10.6102L84.0204 10.6079Z" fill="#666666"/>
<path d="M101.134 22.5944C100.218 22.235 99.4507 21.5755 98.9607 20.7215C98.6699 21.0168 98.3562 21.2893 98.0196 21.5343C97.0946 22.1342 96.0069 22.4319 94.9056 22.3838C91.455 22.3838 89.582 20.6322 89.582 17.5411C89.582 13.9165 92.0938 12.2175 97.019 12.2175C97.3235 12.2106 97.6258 12.2244 97.928 12.2541V11.6153C97.928 9.89345 97.596 9.31415 96.1146 9.31415C94.814 9.31415 93.3028 9.95298 91.6038 11.0726L89.8751 8.1693C90.6696 7.66557 91.51 7.23968 92.3869 6.89852C93.7195 6.30319 95.162 5.99179 96.6206 5.9895C99.2217 5.9895 101.005 6.96034 101.614 8.6822C101.885 9.58205 101.978 10.5277 101.885 11.4642L101.795 16.6687C101.795 18.3608 101.885 19.082 103.247 20.1124L101.134 22.5944ZM97.6899 15.0728C94.8781 15.0728 93.9302 15.5834 93.9302 17.4266C93.8271 18.4386 94.5621 19.3431 95.5742 19.4484C95.6223 19.453 95.6704 19.4576 95.7207 19.4576C96.5427 19.414 97.3075 19.0294 97.8341 18.3974L97.8937 15.0728H97.6899Z" fill="#666666"/>
<path d="M24.3941 12.0136C23.8675 11.7618 23.3661 11.5374 22.8898 11.3359C23.3867 11.2374 23.8973 11.1184 24.3941 10.9741C27.8905 10.0262 30.123 8.52184 29.5895 7.56703C29.056 6.61222 26.0931 6.5733 22.7456 7.36325C22.2647 7.47544 21.7976 7.60367 21.3465 7.73876C21.5801 7.39301 21.8136 7.0404 22.0243 6.67175C23.437 4.18284 23.7095 2.05571 22.7753 1.6573C21.8411 1.25889 19.9407 2.65103 18.3081 4.98882C18.0677 5.34144 17.8502 5.69634 17.6464 6.04895C17.541 5.65742 17.4128 5.29793 17.2709 4.87663C16.3298 2.22973 14.8049 0.409409 13.7974 0.567399C12.7899 0.725389 12.4671 2.91435 13.241 5.70321C13.3623 6.11765 13.4883 6.52292 13.6394 6.91446C13.1952 6.67404 12.7601 6.44736 12.293 6.26877C9.05998 4.72093 5.88645 4.1256 5.08047 4.91555C4.27449 5.7055 6.22303 7.7731 9.65988 9.48809C10.1613 9.73309 10.649 9.95977 11.1253 10.1658C10.562 10.2643 9.9667 10.3834 9.3668 10.5276C4.85837 11.5992 0.904047 13.5317 0.940682 14.8552C0.977318 16.1786 5.27968 16.2153 10.1751 14.8552C10.8208 14.6811 11.4459 14.4865 12.032 14.2919C11.6565 14.7659 11.281 15.2856 10.8963 15.7962C7.88765 20.1581 6.19556 24.9619 7.59457 25.8045C8.99358 26.6472 12.7304 22.963 15.407 18.2989C15.7459 17.7036 16.0459 17.1334 16.3092 16.577C16.4305 17.1632 16.5794 17.7722 16.7534 18.4111C18.1455 23.3958 20.7237 27.5172 22.2578 26.8784C23.7919 26.2396 23.3546 21.4633 21.6625 16.8312C21.445 16.2359 21.2183 15.6817 20.9848 15.1551C21.4885 15.4551 22.022 15.7413 22.5784 16.0275C26.7067 18.102 30.4825 18.7957 30.8511 17.5318C31.2198 16.2679 28.2202 13.8477 24.3918 12.0113L24.3941 12.0136Z" fill="#939393"/>
<path d="M13.2134 13.4654C12.7783 13.6165 12.3044 13.7585 11.8144 13.8936C10.5092 14.2531 9.17205 14.4889 7.82112 14.592C4.4667 17.1862 2.13578 20.0209 2.79063 21.1039C3.44549 22.1869 6.71519 21.0215 10.2505 18.6974C10.8 17.2595 11.5167 15.8925 12.3868 14.6217C12.6661 14.2073 12.9432 13.8249 13.2134 13.4631V13.4654Z" fill="#747474"/>
<path d="M12.4463 10.2919C12.0708 10.1339 11.6953 9.95987 11.3037 9.76525C10.3421 9.29586 9.43764 8.72114 8.60418 8.05026C5.1971 7.94493 2.36931 8.47843 1.96404 9.43324C1.55876 10.388 3.73169 11.4344 7.03344 11.9817C8.33858 11.3703 9.70553 10.8987 11.1091 10.5758C11.5465 10.4636 12.0181 10.372 12.4486 10.2896L12.4463 10.2919Z" fill="#747474"/>
<path d="M14.3424 7.71828C14.2211 7.4023 14.1089 7.07946 14.0127 6.74745C13.7677 5.93231 13.6372 5.08741 13.628 4.23564C11.7413 2.56645 9.86835 1.6643 9.04864 2.07645C8.22892 2.4886 8.62046 4.06849 9.96681 5.98727C11.1185 6.25287 12.2382 6.65128 13.2983 7.17562C13.667 7.34964 14.0127 7.5374 14.3447 7.71599L14.3424 7.71828Z" fill="#747474"/>
<path d="M20.4559 8.37301C20.8177 8.26081 21.2069 8.15549 21.5756 8.0639C22.5601 7.81432 23.5676 7.66778 24.5842 7.62885C26.3656 5.99629 27.1258 4.48509 26.4572 3.92869C25.7886 3.37229 24.0805 3.81649 22.0724 4.92929C21.8618 5.83601 21.5092 6.70381 21.026 7.50063C20.8314 7.77082 20.6505 8.09595 20.4536 8.37301H20.4559Z" fill="#747474"/>
<path d="M16.4921 15.1553C16.2975 15.5606 16.064 15.991 15.8144 16.4192C15.1069 17.6488 14.2757 18.8028 13.3323 19.8629C12.9408 24.2546 13.6025 28.0303 15.0908 28.1356C16.5791 28.2409 17.9415 24.827 18.5872 20.6987C17.8156 19.3844 17.218 17.9762 16.8058 16.5108C16.6868 16.0437 16.5814 15.5926 16.4898 15.1576L16.4921 15.1553Z" fill="#747474"/>
<path d="M17.5596 7.0199C17.7175 6.72681 17.8984 6.4406 18.0862 6.15439C18.5647 5.43084 19.1303 4.76912 19.7714 4.18524C19.7188 2.07184 19.1028 0.567506 18.2671 0.478207C17.4313 0.388909 16.5292 1.6139 16.0117 3.54641C16.5498 4.31804 16.9688 5.16524 17.2596 6.05822C17.3718 6.3742 17.4703 6.69705 17.5596 7.0199Z" fill="#747474"/>
<path d="M31.1716 11.9976C31.0296 11.0955 28.8476 10.1705 25.9602 9.67358C24.9734 10.2254 23.9201 10.649 22.8256 10.9306C22.4204 11.0428 22.0219 11.1344 21.6235 11.2168C22.0151 11.368 22.3746 11.5489 22.8119 11.7435C23.8766 12.2541 24.8887 12.8654 25.8343 13.5707C29.0742 13.6165 31.3319 12.9685 31.1739 11.9976H31.1716Z" fill="#747474"/>
<path d="M20.0781 14.1111C20.2499 14.5095 20.417 14.9239 20.575 15.3681C21.0192 16.6023 21.3329 17.8799 21.5069 19.1805C24.3713 22.0151 27.2289 23.6317 28.0646 22.6631C28.9004 21.6923 27.5014 19.0156 25.2002 16.2268C23.8539 15.8993 22.551 15.4139 21.3191 14.7751C20.8612 14.5415 20.4536 14.3401 20.0781 14.1134V14.1111Z" fill="#747474"/>
<path d="M25.8323 13.5707C24.8706 12.8631 23.8449 12.2518 22.7641 11.7435C22.3657 11.5489 21.9673 11.368 21.5758 11.21C21.9742 11.1344 22.3726 11.0451 22.7778 10.9329C23.8838 10.6536 24.9485 10.2323 25.9445 9.67587C26.8238 9.14924 27.2611 8.61574 27.0504 8.21733C26.8398 7.81892 25.885 7.58537 24.5982 7.63117C23.5838 7.67467 22.5764 7.82121 21.5895 8.06621C21.198 8.15551 20.8385 8.26083 20.4698 8.37532C20.6645 8.09827 20.8453 7.80289 21.0194 7.50294C21.5048 6.70841 21.862 5.83833 22.0726 4.9316C22.2375 4.11189 22.1322 3.51885 21.7337 3.34484C21.3353 3.17082 20.5683 3.47993 19.7783 4.18058C19.1326 4.76216 18.5648 5.42618 18.0862 6.14973C17.8962 6.43136 17.7199 6.72215 17.5596 7.0221C17.4772 6.70612 17.3787 6.38328 17.2665 6.0673C16.9574 5.16744 16.5178 4.31796 15.9591 3.54862C15.4096 2.7976 14.8463 2.41293 14.4021 2.49535C13.9579 2.57778 13.6511 3.24638 13.6511 4.24698C13.6602 5.09875 13.7885 5.94365 14.0358 6.75879C14.1342 7.0908 14.2464 7.41364 14.3655 7.72962C14.0358 7.54874 13.6877 7.36098 13.3191 7.18696C12.2521 6.66033 11.1255 6.25734 9.96466 5.99174C8.81293 5.74445 7.91995 5.76506 7.59481 6.1108C7.27196 6.45655 7.64747 7.23963 8.60228 8.05018C9.43574 8.72107 10.3402 9.29578 11.3018 9.76517C11.6865 9.9598 12.0529 10.1338 12.4444 10.2918C12.0162 10.3742 11.5652 10.4658 11.0981 10.578C9.69676 10.9009 8.3321 11.3725 7.02925 11.9839C5.68291 12.6296 4.8403 13.3234 4.89296 13.8569C4.94562 14.3904 6.12711 14.7064 7.83294 14.6079C9.18158 14.5026 10.5142 14.269 11.8193 13.9095C12.3093 13.7744 12.781 13.6325 13.2183 13.4814C12.9481 13.8431 12.6688 14.2324 12.3917 14.64C11.5217 15.9107 10.805 17.2777 10.2554 18.7156C9.70592 20.22 9.62349 21.4152 10.1959 21.7243C10.7683 22.0334 12.046 21.2893 13.3397 19.8674C14.283 18.8072 15.1142 17.6532 15.8217 16.4236C16.069 15.9955 16.3026 15.5673 16.4995 15.1597C16.5888 15.5948 16.7033 16.0481 16.8384 16.5129C17.2459 17.9692 17.8367 19.3659 18.5968 20.671C19.4005 22.0014 20.25 22.7776 20.8522 22.544C21.4544 22.3105 21.7177 20.9504 21.491 19.1827C21.3193 17.8822 21.0079 16.6045 20.566 15.3704C20.408 14.9262 20.2431 14.514 20.0691 14.1133C20.4446 14.34 20.8202 14.5575 21.2804 14.775C22.5214 15.4139 23.8334 15.9016 25.1912 16.2267C26.4986 16.5129 27.4466 16.4442 27.6114 15.9405C27.7763 15.4368 27.0848 14.5415 25.8277 13.573L25.8323 13.5707Z" fill="#B2B2B2"/>
</svg>
