<svg width="132" height="27" viewBox="0 0 132 27" fill="none" xmlns="http://www.w3.org/2000/svg">
<path d="M48.3926 12.7848C48.3926 15.287 50.3077 16.017 52.6214 16.6392C53.2355 16.8062 55.0914 17.3153 55.0914 18.6001C55.0914 19.7314 54.0463 20.2404 53.0066 20.2404C51.4686 20.2 49.9494 19.9038 48.5084 19.3704V21.9993C49.8121 22.6296 51.2558 22.7724 53.0443 22.7724C54.8328 22.7724 56.0072 22.4114 57.0173 21.5953C58.0947 20.7253 58.6038 19.5751 58.6038 18.0937C58.6038 15.955 56.8476 14.6999 55.2072 14.2366L53.8928 13.8595C53.0443 13.6144 51.7622 13.248 51.7622 12.1194C51.7622 10.7269 53.5695 10.7269 54.4369 10.7269C55.3042 10.7269 56.7479 10.7484 57.6125 11.104V8.766C56.5351 8.22729 55.0698 8.22729 53.6369 8.22729C50.3508 8.22729 48.3926 9.92422 48.3926 12.7848Z" fill="#666666"/>
<path d="M36.5782 10.5707C34.9217 12.2003 34.5742 14.2554 34.5742 15.6884C34.5689 17.5873 35.3419 19.4028 36.7156 20.7145C38.0274 22.0047 40.2818 22.837 42.4582 22.837C43.1882 22.837 45.5827 22.7831 46.5982 22.1852V19.5832C45.3915 20.0277 44.1147 20.2512 42.8272 20.2404C40.2414 20.2324 38.1513 18.1395 38.1459 15.5537C38.1459 13.1996 39.762 10.8158 42.8272 10.8158C44.0528 10.8104 45.2676 11.0474 46.4015 11.5134V9.05421C45.5369 8.54513 43.409 8.31079 42.1242 8.31079C40.0556 8.32695 38.0704 9.13501 36.5782 10.5707Z" fill="#666666"/>
<path d="M60.2632 12.7848C60.2632 15.287 62.1783 16.017 64.4893 16.6392C65.1035 16.8062 66.962 17.3153 66.962 18.6001C66.962 19.726 65.8846 20.2404 64.8772 20.2404C63.3392 20.2 61.82 19.9038 60.379 19.3704V21.9993C61.6665 22.6296 63.1264 22.7724 64.9203 22.7724C66.7142 22.7724 67.8832 22.4114 68.8933 21.5953C69.9707 20.7253 70.4851 19.5751 70.4851 18.0937C70.4851 15.955 68.729 14.6999 67.0886 14.2366L65.7715 13.8595C64.9203 13.6144 63.6409 13.2507 63.6409 12.1194C63.6409 10.7269 65.4455 10.7269 66.3155 10.7269C67.1856 10.7269 68.6239 10.7484 69.4912 11.104V8.766C68.4138 8.22729 66.9485 8.22729 65.5156 8.22729C62.2268 8.22729 60.2632 9.92422 60.2632 12.7848Z" fill="#666666"/>
<path d="M97.4041 8.68506V18.0343L97.0189 17.4283L92.0305 8.68506H87.7559V22.3224H90.9692V13.0109L91.3517 13.6142C91.3517 13.6142 96.2351 22.1392 96.3375 22.3224H100.615V8.68506H97.4041Z" fill="#666666"/>
<path d="M28.7026 8.68506V22.3224H32.1369V8.68506H28.7026Z" fill="#666666"/>
<path d="M0.975586 8.68506V22.3224H11.4292V19.61H4.41253V16.8249H11.1975V14.1071H4.41253V11.3974H11.4292V8.68506H0.975586Z" fill="#666666"/>
<path d="M14.7236 8.68506V22.3224H18.1579V16.9353H19.7336C20.3423 16.9353 20.8433 17.3259 21.3093 18.1582C21.3093 18.1771 22.4622 21.6813 22.6696 22.3224H26.3462C26.2493 22.0908 26.1092 21.7325 25.8506 21.0538L24.3234 17.0619C24.1321 16.5825 23.8197 16.1623 23.4157 15.8445L22.982 15.4566L23.3537 15.392C23.9167 15.2896 25.7779 14.126 25.7779 12.3186C25.7779 11.1443 25.5085 10.3012 24.9429 9.74092C24.2183 9.01098 22.9605 8.68775 20.8757 8.68775H14.7236V8.68506ZM18.0879 14.3846V11.0985H20.0272C20.9996 11.0985 22.1147 11.2951 22.1147 12.8358C22.1147 14.3765 20.9996 14.5704 20.0272 14.5704H18.0879V14.3846Z" fill="#666666"/>
<path d="M71.6726 15.2302C71.6726 19.7635 74.5628 22.9284 78.7027 22.9284C82.8427 22.9284 85.6844 19.7635 85.6844 15.2302C85.6844 11.2088 82.6191 8.06006 78.7027 8.06006C74.8214 8.06006 71.6726 11.2061 71.6699 15.0875C71.6699 15.136 71.6699 15.1818 71.6699 15.2302H71.6726ZM75.3466 15.2302C75.3466 13.0754 76.2247 10.7886 78.692 10.7886C81.1592 10.7886 82.04 13.0835 82.04 15.2302C82.04 18.449 80.8495 20.2214 78.692 20.2214C76.5344 20.2214 75.3466 18.4625 75.3466 15.2464V15.2302Z" fill="#666666"/>
<path d="M127.932 0.48593L112.954 5.97535C112.334 6.19622 111.833 6.65951 111.561 7.25747C111.294 7.83658 111.273 8.50188 111.502 9.09715C112 10.3631 113.422 10.9961 114.696 10.5193L129.67 5.03261C130.289 4.81174 130.793 4.34845 131.065 3.7478C131.331 3.16869 131.353 2.50608 131.124 1.91081C130.623 0.647542 129.206 0.0145624 127.932 0.48593Z" fill="#666666"/>
<path d="M127.932 8.59612L112.953 14.0828C112.334 14.3091 111.833 14.7751 111.561 15.373C111.297 15.9522 111.275 16.6121 111.502 17.2073C112.003 18.4733 113.419 19.1063 114.696 18.6349L129.67 13.1455C130.289 12.9219 130.793 12.456 131.065 11.8553C131.331 11.2789 131.35 10.6163 131.124 10.0237C130.626 8.75773 129.206 8.12206 127.932 8.59612Z" fill="#666666"/>
<path d="M127.932 16.7064L112.954 22.1958C112.337 22.4193 111.833 22.8799 111.561 23.4779C111.294 24.0597 111.273 24.7223 111.502 25.3203C112.003 26.5862 113.422 27.2165 114.696 26.7398L129.67 21.2557C130.289 21.0322 130.793 20.5689 131.065 19.9682C131.331 19.3891 131.353 18.7238 131.124 18.1285C130.623 16.8653 129.206 16.2323 127.932 16.7064Z" fill="#666666"/>
</svg>
