<svg width="132" height="29" viewBox="0 0 132 29" fill="none" xmlns="http://www.w3.org/2000/svg">
<path d="M0.69043 0.633301H13.9793C13.9793 5.06292 13.9793 9.49254 13.9793 13.9222H0.69043V0.633301Z" fill="#747474"/>
<path d="M15.3359 0.633301H28.6248C28.6248 5.06292 28.6248 9.49254 28.6248 13.9222C24.1952 13.9222 19.7656 13.9222 15.3379 13.9222C15.3379 9.49254 15.3379 5.06292 15.3379 0.633301H15.3359Z" fill="#939393"/>
<path d="M120.525 5.69607C121.751 4.89943 123.332 4.82438 124.714 5.20539C124.725 6.02512 124.714 6.84677 124.72 7.66842C124.063 7.37979 123.292 7.19121 122.601 7.47407C122.053 7.69151 121.727 8.25339 121.643 8.81527C121.541 9.52725 121.606 10.2508 121.589 10.9666C122.99 10.9704 124.393 10.9666 125.793 10.9666C125.803 10.0564 125.782 9.14625 125.805 8.23608C126.757 7.96476 127.7 7.66073 128.649 7.37401C128.657 8.57282 128.637 9.77163 128.659 10.9724C129.605 10.9589 130.554 10.9685 131.503 10.9666V13.3007C130.552 13.2622 129.6 13.2911 128.647 13.2872C128.651 14.6284 128.647 15.9696 128.647 17.3128C128.662 18.0555 128.607 18.8021 128.693 19.543C128.745 19.9798 128.905 20.4627 129.315 20.6898C130 21.0747 130.87 20.9053 131.501 20.4839V22.8411C130.679 23.1971 129.761 23.3068 128.874 23.2433C128.031 23.1817 127.158 22.8738 126.607 22.2042C125.972 21.446 125.809 20.4204 125.795 19.4621C125.788 17.4032 125.795 15.3442 125.791 13.2834C124.389 13.2834 122.986 13.2834 121.585 13.2834C121.585 16.5142 121.585 19.7469 121.585 22.9777H118.71C118.71 19.7469 118.706 16.5161 118.71 13.2853C118.044 13.2718 117.377 13.2892 116.711 13.2757C116.713 12.5079 116.717 11.7401 116.711 10.9724C117.375 10.957 118.039 10.9627 118.703 10.9685C118.751 9.94866 118.595 8.89802 118.901 7.90511C119.159 7.00841 119.732 6.1983 120.521 5.69222L120.525 5.69607Z" fill="#666666"/>
<path d="M58.9913 5.86338C59.5705 5.77487 60.1978 5.97307 60.5826 6.42719C61.0329 6.92364 61.1156 7.71451 60.7827 8.29371C60.4133 8.94795 59.5897 9.25198 58.87 9.0942C58.1234 8.9595 57.5019 8.26677 57.5365 7.49322C57.5154 6.67926 58.1965 5.95382 58.9932 5.86338H58.9913Z" fill="#666666"/>
<path d="M36.9644 6.21948H41.1438C42.4446 9.52342 43.755 12.8235 45.0577 16.1274C45.3906 16.9529 45.7024 17.79 46.0507 18.6097C47.7247 14.4822 49.4219 10.3643 51.0826 6.23103C52.4218 6.20986 53.763 6.22718 55.1042 6.22333C55.1004 11.8094 55.1042 17.3955 55.1042 22.9816C54.1363 22.9797 53.1704 22.9893 52.2044 22.9758C52.214 18.8541 52.2044 14.7304 52.2082 10.6087C52.2082 10.424 52.2044 10.2392 52.1909 10.0526C52.1351 10.1392 52.0832 10.2277 52.0408 10.3201C50.3802 14.5399 48.6869 18.7483 47.0359 22.972C46.347 22.997 45.66 22.972 44.9711 22.9855C43.2566 18.7656 41.5652 14.5361 39.8603 10.3143C39.8161 10.2258 39.768 10.1411 39.716 10.0584C39.6814 11.8652 39.7103 13.6721 39.7006 15.479C39.7006 17.9805 39.7006 20.482 39.7006 22.9835C38.7885 22.9855 37.8764 22.9835 36.9644 22.9835C36.9644 17.3974 36.9644 11.8094 36.9644 6.22333V6.21948Z" fill="#666666"/>
<path d="M66.8998 10.957C68.2871 10.5625 69.7823 10.5779 71.1697 10.9704C71.4545 11.0493 71.7315 11.1609 71.9894 11.3129C71.974 12.2289 71.9894 13.1448 71.9798 14.0608C71.0523 13.3526 69.8766 12.9043 68.6989 13.0525C67.7637 13.1371 66.8709 13.622 66.3109 14.3783C65.5913 15.3154 65.4258 16.5604 65.5489 17.7053C65.6413 18.602 66.0127 19.4987 66.7093 20.0933C67.4347 20.7379 68.4507 20.965 69.3974 20.8938C70.3345 20.786 71.2197 20.3896 71.9759 19.8354C71.9836 20.7033 71.9721 21.5711 71.9817 22.4389C70.806 23.1374 69.3974 23.3183 68.0524 23.2529C66.6765 23.1798 65.3046 22.6583 64.3078 21.6923C63.2264 20.6494 62.6376 19.1619 62.5683 17.6707C62.4971 16.1216 62.8127 14.5053 63.7055 13.2122C64.4521 12.1077 65.6201 11.3264 66.894 10.9608L66.8998 10.957Z" fill="#666666"/>
<path d="M92.9965 13.7741C92.4981 12.6638 91.5975 11.7383 90.4872 11.236C89.2076 10.653 87.751 10.576 86.3732 10.7511C84.9242 10.9339 83.5138 11.6151 82.5959 12.7697C81.755 13.8011 81.3471 15.1269 81.2701 16.4411C81.1527 17.9902 81.4125 19.6335 82.3227 20.9266C83.0981 22.0426 84.32 22.8085 85.642 23.0913C86.7465 23.3242 87.9011 23.3242 89.0056 23.0933C90.2967 22.8296 91.5052 22.1119 92.3057 21.0574C93.0869 20.0626 93.4814 18.8099 93.568 17.5591C93.6584 16.2795 93.5295 14.9518 92.9965 13.7703V13.7741ZM90.2217 19.2871C89.9465 19.9048 89.4443 20.4263 88.8093 20.6745C88.0665 20.9593 87.2333 20.9766 86.4656 20.7765C85.6862 20.5725 85.0243 20.0087 84.6645 19.2909C84.2007 18.3673 84.1315 17.2994 84.2277 16.2853C84.3162 15.3636 84.6356 14.4149 85.338 13.778C85.8479 13.3027 86.5406 13.0718 87.2276 13.0333C88.0916 12.9756 89.0113 13.2199 89.6329 13.8492C90.2967 14.5015 90.5546 15.4502 90.6239 16.3526C90.6758 17.3417 90.6354 18.3731 90.2198 19.289L90.2217 19.2871Z" fill="#666666"/>
<path d="M98.294 10.7742C99.6237 10.5394 101.015 10.7126 102.271 11.1879C102.271 12.0692 102.271 12.9486 102.271 13.8299C101.392 13.2257 100.318 12.9005 99.2523 12.9389C98.7154 12.9601 98.1247 13.1872 97.8803 13.6971C97.686 14.2032 97.8207 14.8651 98.2979 15.1672C99.1118 15.7118 100.086 15.9446 100.93 16.4315C101.596 16.8048 102.241 17.2935 102.577 17.9978C103.21 19.3159 102.943 21.0593 101.829 22.0426C100.767 23.0355 99.2369 23.3106 97.8303 23.2568C96.8316 23.1913 95.8271 22.9951 94.9093 22.5871C94.9131 21.6596 94.9035 20.7341 94.9131 19.8085C95.6847 20.3704 96.5776 20.7706 97.5205 20.9342C98.1766 21.0419 98.8925 21.0458 99.5044 20.7514C100.089 20.4608 100.195 19.6276 99.8469 19.1177C99.5217 18.7252 99.0426 18.5096 98.5923 18.296C97.7456 17.915 96.8547 17.5975 96.1119 17.026C95.5885 16.6181 95.1941 16.0428 95.0382 15.3962C94.8092 14.4418 94.8804 13.3642 95.4365 12.5291C96.0715 11.5554 97.1741 10.9724 98.296 10.7722L98.294 10.7742Z" fill="#666666"/>
<path d="M116.015 14.1207C115.572 12.9276 114.687 11.8962 113.546 11.3266C112.237 10.6647 110.715 10.5685 109.28 10.7474C108.123 10.8956 106.986 11.3343 106.103 12.1098C105.027 13.0373 104.394 14.4035 104.207 15.7986C104.03 17.1937 104.09 18.6657 104.66 19.9723C105.206 21.2538 106.284 22.2949 107.581 22.8048C108.858 23.3089 110.282 23.3647 111.627 23.1473C113.005 22.9202 114.308 22.1967 115.162 21.0826C116.072 19.9319 116.465 18.4425 116.463 16.9916C116.482 16.0199 116.363 15.0347 116.017 14.1226L116.015 14.1207ZM113.421 18.1924C113.311 18.8235 113.092 19.4547 112.678 19.955C112.26 20.4572 111.641 20.7651 111 20.8594C110.311 20.9614 109.588 20.9132 108.943 20.6362C108.248 20.3417 107.711 19.7414 107.429 19.0506C107.086 18.227 107.019 17.3149 107.086 16.4336C107.152 15.5812 107.394 14.7037 107.956 14.0418C108.47 13.4222 109.259 13.0796 110.053 13.0354C110.865 12.9776 111.731 13.1662 112.357 13.7146C112.932 14.1919 113.249 14.9077 113.396 15.6273C113.561 16.4721 113.559 17.3438 113.419 18.1943L113.421 18.1924Z" fill="#666666"/>
<path d="M78.4166 11.1534C79.2094 10.6762 80.2177 10.6377 81.0836 10.9283C81.0798 11.8866 81.0836 12.8448 81.0817 13.8031C80.516 13.4356 79.8078 13.2778 79.1382 13.3471C78.3223 13.4394 77.6758 14.0667 77.341 14.7845C76.9773 15.5446 76.908 16.4047 76.9311 17.2379C76.9311 19.1525 76.9311 21.0672 76.9311 22.9818H74.0986C74.0967 18.9793 74.1025 14.9769 74.0967 10.9764C75.0434 10.9648 75.9882 10.9687 76.9349 10.9745C76.9311 11.6614 76.9349 12.3484 76.933 13.0373C77.2409 12.2887 77.6969 11.5633 78.4185 11.1553L78.4166 11.1534Z" fill="#666666"/>
<path d="M57.7944 10.9725C58.7469 10.9686 59.7014 10.959 60.6539 10.9763C60.6423 14.9768 60.6539 18.9793 60.65 22.9798H57.7964C57.7944 18.9773 57.7964 14.9749 57.7964 10.9705L57.7944 10.9725Z" fill="#666666"/>
<path d="M0.69043 15.2788C5.12005 15.2788 9.54967 15.2788 13.9793 15.2788C13.9793 19.7084 13.9793 24.138 13.9793 28.5677H0.69043V15.2788Z" fill="#8C8C8C"/>
<path d="M15.3359 15.2788C19.7656 15.2788 24.1952 15.2788 28.6248 15.2788V28.5677H15.3359C15.3359 24.138 15.3359 19.7084 15.3359 15.2788Z" fill="#B2B2B2"/>
</svg>
