<svg width="55" height="23" viewBox="0 0 55 23" fill="none" xmlns="http://www.w3.org/2000/svg">
<path d="M10.1968 7.23119L9.82844 6.78609C9.31888 6.1783 8.48701 6.18137 7.87308 6.68786C7.25608 7.19435 7.07497 8.0385 7.58146 8.65243C7.58146 8.65243 7.64286 8.7261 7.75029 8.85503" fill="#989898"/>
<path d="M7.74145 8.84597C8.91098 10.2519 10.4826 12.1428 10.4826 12.1428C12.4441 14.5217 11.5662 17.4532 8.90791 19.1231C6.56577 20.5935 2.26521 20.0686 0.785645 17.6558C1.93369 21.0447 5.78609 23.2579 10.0437 22.1928C13.7364 21.2688 17.8651 16.5201 13.3497 11.0469L9.99763 6.99805" fill="#989898"/>
<path d="M8.1034 13.9353C6.96457 12.5663 5.57402 10.8933 5.57402 10.8933C3.61252 8.51436 4.49044 5.58286 7.14875 3.91298C9.49088 2.44262 13.7914 2.96446 15.271 5.38026C14.126 1.99138 10.2736 -0.221828 6.01298 0.843337C2.3202 1.76423 -1.80539 6.50989 2.70698 11.9892L5.90554 15.8508" fill="#989898"/>
<path d="M5.396 15.2582L6.15727 16.1791C6.66683 16.7869 7.4987 16.7808 8.11263 16.2773C8.72962 15.7678 8.91073 14.9267 8.40117 14.3097C8.40117 14.3097 8.10035 13.9475 7.66753 13.4287" fill="#989898"/>
<path d="M19.7161 13.4043C19.7928 15.5285 21.5087 16.1977 23.326 16.1977C24.7042 16.1977 26.5736 15.8631 26.5736 14.0459C26.5736 12.2286 24.3911 11.894 22.1841 11.363C20.0015 10.8319 17.7945 10.0492 17.7945 7.28345C17.7945 4.3765 20.4712 3.17627 22.8103 3.17627C25.7725 3.17627 28.1361 4.18311 28.3172 7.70399H26.1101C25.9536 5.85913 24.4464 5.27283 22.9914 5.27283C21.6653 5.27283 20.1335 5.66575 20.1335 7.11769C20.1335 8.82133 22.4726 9.10067 24.5262 9.63172C26.7333 10.1628 28.9188 10.9455 28.9188 13.7389C28.9188 17.1769 25.9321 18.2942 23.2032 18.2942C20.1888 18.2942 17.6441 16.9804 17.5151 13.4043H19.7222H19.7161Z" fill="#666666"/>
<path d="M38.3729 12.9316C38.3729 14.2454 37.1788 16.1977 34.2657 16.1977C32.9151 16.1977 31.6688 15.639 31.6688 14.0735C31.6688 12.3146 32.9151 11.7559 34.3701 11.4766C35.8527 11.1972 37.5165 11.1696 38.3729 10.5004V12.9316ZM41.9582 16.0595C41.6727 16.1701 41.464 16.1977 41.2829 16.1977C40.58 16.1977 40.58 15.6973 40.58 14.5769V7.14531C40.58 3.76564 37.9554 3.17627 35.5396 3.17627C32.5498 3.17627 29.9774 4.43482 29.8485 8.01095H32.0556C32.1599 5.88676 33.5351 5.27283 35.4076 5.27283C36.8104 5.27283 38.3944 5.60742 38.3944 7.67636C38.3944 9.46289 36.3162 9.29713 33.8728 9.80055C31.5859 10.2763 29.3267 10.9732 29.3267 14.2423C29.3267 17.1216 31.3281 18.2942 33.7684 18.2942C35.6378 18.2942 37.274 17.5944 38.4957 16.0595C38.4957 17.622 39.2232 18.2942 40.3682 18.2942C41.068 18.2942 41.5622 18.153 41.9521 17.9044V16.0595H41.9582Z" fill="#666666"/>
<path d="M15.8023 17.6773C15.8023 17.2752 16.1031 16.9713 16.4929 16.9713C16.8828 16.9713 17.1805 17.2721 17.1805 17.6773C17.1805 18.0825 16.8766 18.3864 16.4929 18.3864C16.1092 18.3864 15.8023 18.0856 15.8023 17.6773ZM16.4929 18.5245C16.9565 18.5245 17.3524 18.1654 17.3524 17.6773C17.3524 17.1892 16.9565 16.8301 16.4929 16.8301C16.0294 16.8301 15.6304 17.1892 15.6304 17.6773C15.6304 18.1654 16.0264 18.5245 16.4929 18.5245ZM16.3118 17.7418H16.4807L16.7416 18.1654H16.9073L16.628 17.7326C16.7723 17.7172 16.8828 17.6405 16.8828 17.4624C16.8828 17.269 16.7692 17.1831 16.5359 17.1831H16.1645V18.1623H16.3118V17.7387V17.7418ZM16.3118 17.619V17.3151H16.5144C16.6157 17.3151 16.7262 17.3366 16.7262 17.4594C16.7262 17.6098 16.6157 17.619 16.4899 17.619H16.3118Z" fill="#989898"/>
<path d="M44.0367 13.4013C44.1135 15.5132 45.8171 16.1793 47.6282 16.1793C48.9973 16.1793 50.8575 15.8478 50.8575 14.0398C50.8575 12.2318 48.6872 11.9002 46.4924 11.3723C44.3222 10.8443 42.1243 10.0646 42.1243 7.3142C42.1243 4.42567 44.7857 3.22852 47.1125 3.22852C50.0594 3.22852 52.4076 4.22922 52.5887 7.73168H50.3939C50.2374 5.89603 48.7394 5.3128 47.2936 5.3128C45.9767 5.3128 44.4511 5.70264 44.4511 7.14844C44.4511 8.84289 46.7779 9.11915 48.8192 9.64713C51.014 10.1751 53.1843 10.9517 53.1843 13.7297C53.1843 17.1493 50.2128 18.2575 47.4993 18.2575C44.5033 18.2575 41.9709 16.9529 41.8389 13.3952H44.0367V13.4013Z" fill="#666666"/>
<path d="M52.4932 17.6772C52.4932 17.2751 52.794 16.9712 53.1839 16.9712C53.5737 16.9712 53.8715 17.272 53.8715 17.6772C53.8715 18.0824 53.5676 18.3863 53.1839 18.3863C52.8002 18.3863 52.4932 18.0855 52.4932 17.6772ZM53.1839 18.5244C53.6443 18.5244 54.0403 18.1653 54.0403 17.6741C54.0403 17.183 53.6443 16.8269 53.1839 16.8269C52.7234 16.8269 52.3213 17.1861 52.3213 17.6741C52.3213 18.1622 52.7173 18.5244 53.1839 18.5244ZM53.0058 17.7417H53.1746L53.4325 18.1653H53.5983L53.3189 17.7324C53.4632 17.7171 53.5737 17.6404 53.5737 17.4654C53.5737 17.272 53.4601 17.1861 53.2268 17.1861H52.8554V18.1653H53.0027V17.7417H53.0058ZM53.0058 17.6189V17.315H53.2053C53.3097 17.315 53.4202 17.3365 53.4202 17.4592C53.4202 17.6097 53.3097 17.6189 53.1839 17.6189H53.0058Z" fill="#666666"/>
</svg>
