<svg width="134" height="20" viewBox="0 0 134 20" fill="none" xmlns="http://www.w3.org/2000/svg">
<path d="M7.02349 9.9501V9.7263C7.02349 8.94694 6.32839 8.39139 5.38315 8.39139C4.51954 8.39139 3.96399 8.86532 3.96399 9.56042C3.96399 9.89481 4.10353 10.2292 4.3247 10.3951C4.71438 10.7005 4.74071 10.7005 6.52323 11.2561C9.41685 12.146 10.5569 13.2861 10.5569 15.374C10.5569 17.878 8.55324 19.5473 5.54903 19.5473C2.54482 19.5473 0.625387 17.9912 0.48584 15.3187H3.87973C4.04561 16.4325 4.5485 16.9327 5.57536 16.9327C6.41001 16.9327 6.99453 16.4325 6.99453 15.7084C6.99453 14.929 6.49426 14.5683 4.60116 13.9838C1.82075 13.1492 0.570095 11.8985 0.570095 9.86585C0.570095 7.41719 2.54745 5.77686 5.55166 5.77686C8.55587 5.77686 10.2805 7.33557 10.3647 9.9501H7.02612H7.02349Z" fill="#666666"/>
<path d="M15.5439 13.5125C15.8493 15.2924 17.1579 16.4061 18.9114 16.4061C20.22 16.4061 21.3311 15.7663 21.8893 14.7368L25.1437 15.6268C23.8641 18.1307 21.6102 19.5499 18.8851 19.5499C14.7935 19.5499 11.8735 16.6563 11.8735 12.6489C11.8735 8.64152 14.6829 5.77686 18.6613 5.77686C22.6397 5.77686 25.6439 8.67048 25.6439 12.8148L25.615 13.5099H15.5439V13.5125ZM21.9999 11.4799C21.6945 9.78159 20.4702 8.7521 18.7166 8.7521C16.9631 8.7521 15.8783 9.7263 15.5439 11.4799H21.9999Z" fill="#666666"/>
<path d="M30.4934 6.22183V8.11229C30.8541 7.16706 31.1069 6.77738 31.6335 6.3877C32.189 5.99802 32.9421 5.77686 33.7214 5.77686C33.8057 5.77686 33.9452 5.77686 34.1374 5.80582V9.42351C33.8583 9.39455 33.5819 9.36822 33.387 9.36822C32.4128 9.36822 31.5229 9.81319 31.0226 10.5373C30.6066 11.1218 30.4934 11.6773 30.4934 12.9017V19.1049H26.96V6.22183H30.4934Z" fill="#666666"/>
<path d="M48.4478 6.22192L43.7453 19.105H40.1013L35.4541 6.22456H39.1271L41.9654 13.9023L44.8301 6.22192H48.4478Z" fill="#666666"/>
<path d="M53.6873 2.5779C53.6873 3.66269 52.8526 4.49734 51.7389 4.49734C50.6251 4.49734 49.7642 3.66269 49.7642 2.54894C49.7642 1.4352 50.5988 0.574219 51.7389 0.574219C52.879 0.574219 53.6873 1.40887 53.6873 2.5779ZM53.4924 19.105H49.959V6.22193H53.4924V19.1024V19.105Z" fill="#666666"/>
<path d="M66.7737 17.6305C65.2993 18.9654 63.7695 19.5499 61.8211 19.5499C57.898 19.5499 55.0044 16.6563 55.0044 12.7331C55.0044 8.81003 57.8427 5.77686 61.8475 5.77686C63.7669 5.77686 65.3519 6.44563 66.9949 7.92009L64.6305 10.0633C63.8512 9.28396 63.0165 8.92325 61.987 8.92325C60.0386 8.92325 58.5931 10.5083 58.5931 12.6226C58.5931 14.7368 60.0676 16.4061 62.1266 16.4061C63.0455 16.4061 63.7116 16.127 64.6305 15.3214L66.7737 17.6305Z" fill="#666666"/>
<path d="M71.9862 13.5125C72.2916 15.2924 73.6002 16.4061 75.3511 16.4061C76.6597 16.4061 77.7708 15.7663 78.329 14.7368L81.5833 15.6268C80.3037 18.1307 78.0499 19.5499 75.3221 19.5499C71.2331 19.5499 68.3105 16.6563 68.3105 12.6489C68.3105 8.64152 71.1199 5.77686 75.0983 5.77686C79.0767 5.77686 82.0836 8.67048 82.0836 12.8148L82.0546 13.5099H71.9835L71.9862 13.5125ZM78.4422 11.4799C78.1368 9.78159 76.9124 8.7521 75.1589 8.7521C73.4053 8.7521 72.3206 9.7263 71.9888 11.4799H78.4422Z" fill="#666666"/>
<path d="M86.9365 6.22183V7.80687C87.8817 6.33241 88.8269 5.77686 90.4409 5.77686C91.6653 5.77686 92.8343 6.22183 93.611 6.97222C94.4457 7.80687 94.7511 8.83636 94.7511 10.9506V19.1023H91.2177V11.1165C91.2177 10.3924 91.1334 9.97643 90.9122 9.61308C90.5778 9.08386 89.9117 8.74947 89.2166 8.74947C87.8527 8.74947 86.9338 9.77896 86.9338 11.2824V19.0997H83.4004V6.22183H86.9338H86.9365Z" fill="#666666"/>
<path d="M133.172 6.22192L128.972 19.105H125.299L123.045 11.2035L120.736 19.105H116.982L112.837 6.22456H116.426L119.014 14.0708L121.268 6.22456H124.662L126.971 14.0708L129.586 6.22456H133.174L133.172 6.22192Z" fill="#666666"/>
<path d="M130.823 19.0365H130.457V17.7543H130.073V17.4673H131.21V17.7543H130.823V19.0365ZM131.8 19.0365H131.434V17.4673H131.837L132.308 18.3836L132.782 17.4673H133.185V19.0365H132.819V18.1255L132.306 19.1024L131.795 18.1255V19.0365H131.8Z" fill="#BCBCBC"/>
<path d="M102.909 5.70565C99.2176 6.11376 96.3003 9.20486 96.0818 12.9147C95.9291 15.4924 97.0454 17.812 98.8622 19.3207C99.5073 19.8552 100.466 19.8183 101.053 19.2207C101.751 18.5098 102.719 18.0674 103.794 18.0674C104.868 18.0674 105.84 18.5098 106.537 19.2207C107.119 19.8157 108.078 19.8578 108.72 19.326C110.429 17.9094 111.521 15.7767 111.521 13.3834C111.521 8.82571 107.575 5.18959 102.914 5.70565H102.909ZM103.794 17.2301C101.669 17.2301 99.9443 15.5082 99.9443 13.3807C99.9443 11.2533 101.666 9.53134 103.794 9.53134C105.921 9.53134 107.643 11.2559 107.643 13.3807C107.643 15.5055 105.921 17.2301 103.794 17.2301Z" fill="#989898"/>
</svg>
