<svg width="344" height="172" viewBox="0 0 344 172" fill="none" xmlns="http://www.w3.org/2000/svg">
<g filter="url(#filter0_b_240_252)">
<g clip-path="url(#clip0_240_252)">
<path d="M3.08691 99C3.08691 95.2288 3.08691 93.3431 4.25849 92.1716C5.43006 91 7.31568 91 11.0869 91H60.0869C63.8582 91 65.7438 91 66.9153 92.1716C68.0869 93.3431 68.0869 95.2288 68.0869 99V171H3.08691V99Z" fill="url(#paint0_linear_240_252)"/>
<mask id="path-3-inside-1_240_252" fill="white">
<path d="M3.08691 91H68.0869V171H3.08691V91Z"/>
</mask>
<path d="M3.08691 171.202H3.89941V170.798H3.08691V171.202ZM5.52441 171.202H7.14941V170.798H5.52441V171.202ZM8.77441 171.202H10.3994V170.798H8.77441V171.202ZM12.0244 171.202H13.6494V170.798H12.0244V171.202ZM15.2744 171.202H16.8994V170.798H15.2744V171.202ZM18.5244 171.202H20.1494V170.798H18.5244V171.202ZM21.7744 171.202H23.3994V170.798H21.7744V171.202ZM25.0244 171.202H26.6494V170.798H25.0244V171.202ZM28.2744 171.202H29.8994V170.798H28.2744V171.202ZM31.5244 171.202H33.1494V170.798H31.5244V171.202ZM34.7744 171.202H36.3994V170.798H34.7744V171.202ZM38.0244 171.202H39.6494V170.798H38.0244V171.202ZM41.2744 171.202H42.8994V170.798H41.2744V171.202ZM44.5244 171.202H46.1494V170.798H44.5244V171.202ZM47.7744 171.202H49.3994V170.798H47.7744V171.202ZM51.0244 171.202H52.6494V170.798H51.0244V171.202ZM54.2744 171.202H55.8994V170.798H54.2744V171.202ZM57.5244 171.202H59.1494V170.798H57.5244V171.202ZM60.7744 171.202H62.3994V170.798H60.7744V171.202ZM64.0244 171.202H65.6494V170.798H64.0244V171.202ZM67.2744 171.202H68.0869V170.798H67.2744V171.202ZM3.08691 171.404H3.89941V170.596H3.08691V171.404ZM5.52441 171.404H7.14941V170.596H5.52441V171.404ZM8.77441 171.404H10.3994V170.596H8.77441V171.404ZM12.0244 171.404H13.6494V170.596H12.0244V171.404ZM15.2744 171.404H16.8994V170.596H15.2744V171.404ZM18.5244 171.404H20.1494V170.596H18.5244V171.404ZM21.7744 171.404H23.3994V170.596H21.7744V171.404ZM25.0244 171.404H26.6494V170.596H25.0244V171.404ZM28.2744 171.404H29.8994V170.596H28.2744V171.404ZM31.5244 171.404H33.1494V170.596H31.5244V171.404ZM34.7744 171.404H36.3994V170.596H34.7744V171.404ZM38.0244 171.404H39.6494V170.596H38.0244V171.404ZM41.2744 171.404H42.8994V170.596H41.2744V171.404ZM44.5244 171.404H46.1494V170.596H44.5244V171.404ZM47.7744 171.404H49.3994V170.596H47.7744V171.404ZM51.0244 171.404H52.6494V170.596H51.0244V171.404ZM54.2744 171.404H55.8994V170.596H54.2744V171.404ZM57.5244 171.404H59.1494V170.596H57.5244V171.404ZM60.7744 171.404H62.3994V170.596H60.7744V171.404ZM64.0244 171.404H65.6494V170.596H64.0244V171.404ZM67.2744 171.404H68.0869V170.596H67.2744V171.404Z" fill="#F8F8F8" fill-opacity="0.09" mask="url(#path-3-inside-1_240_252)"/>
</g>
<path d="M68.0869 171V171.202H68.289V171H68.0869ZM3.08691 171H2.88481V171.202H3.08691V171ZM66.9153 92.1716L66.7724 92.3145L66.9153 92.1716ZM11.0869 91.2021H60.0869V90.7979H11.0869V91.2021ZM67.8848 99V171H68.289V99H67.8848ZM68.0869 170.798H3.08691V171.202H68.0869V170.798ZM3.28902 171V99H2.88481V171H3.28902ZM60.0869 91.2021C61.9782 91.2021 63.3764 91.2025 64.4491 91.3467C65.5159 91.4902 66.2305 91.7725 66.7724 92.3145L67.0583 92.0287C66.4287 91.3991 65.6146 91.0956 64.5029 90.9461C63.3971 90.7975 61.9668 90.7979 60.0869 90.7979V91.2021ZM68.289 99C68.289 97.1201 68.2894 95.6898 68.1408 94.584C67.9913 93.4723 67.6878 92.6583 67.0583 92.0287L66.7724 92.3145C67.3144 92.8565 67.5967 93.571 67.7402 94.6378C67.8844 95.7105 67.8848 97.1087 67.8848 99H68.289ZM11.0869 90.7979C9.20701 90.7979 7.77675 90.7975 6.6709 90.9461C5.55923 91.0956 4.74517 91.3991 4.11558 92.0287L4.4014 92.3145C4.94337 91.7725 5.65791 91.4902 6.72476 91.3467C7.79742 91.2025 9.19558 91.2021 11.0869 91.2021V90.7979ZM3.28902 99C3.28902 97.1087 3.28945 95.7105 3.43366 94.6378C3.5771 93.571 3.85942 92.8565 4.4014 92.3145L4.11558 92.0287C3.48598 92.6583 3.18252 93.4723 3.03306 94.584C2.88438 95.6898 2.88481 97.1201 2.88481 99H3.28902Z" fill="url(#paint1_radial_240_252)"/>
</g>
<g filter="url(#filter1_b_240_252)">
<g clip-path="url(#clip1_240_252)">
<path d="M94.8398 69C94.8398 65.2288 94.8398 63.3431 96.0114 62.1716C97.183 61 99.0686 61 102.84 61H151.84C155.611 61 157.497 61 158.668 62.1716C159.84 63.3431 159.84 65.2288 159.84 69V171H94.8398V69Z" fill="url(#paint2_linear_240_252)"/>
<mask id="path-7-inside-2_240_252" fill="white">
<path d="M94.8398 61H159.84V171H94.8398V61Z"/>
</mask>
<path d="M94.8398 171.202H95.6523V170.798H94.8398V171.202ZM97.2773 171.202H98.9023V170.798H97.2773V171.202ZM100.527 171.202H102.152V170.798H100.527V171.202ZM103.777 171.202H105.402V170.798H103.777V171.202ZM107.027 171.202H108.652V170.798H107.027V171.202ZM110.277 171.202H111.902V170.798H110.277V171.202ZM113.527 171.202H115.152V170.798H113.527V171.202ZM116.777 171.202H118.402V170.798H116.777V171.202ZM120.027 171.202H121.652V170.798H120.027V171.202ZM123.277 171.202H124.902V170.798H123.277V171.202ZM126.527 171.202H128.152V170.798H126.527V171.202ZM129.777 171.202H131.402V170.798H129.777V171.202ZM133.027 171.202H134.652V170.798H133.027V171.202ZM136.277 171.202H137.902V170.798H136.277V171.202ZM139.527 171.202H141.152V170.798H139.527V171.202ZM142.777 171.202H144.402V170.798H142.777V171.202ZM146.027 171.202H147.652V170.798H146.027V171.202ZM149.277 171.202H150.902V170.798H149.277V171.202ZM152.527 171.202H154.152V170.798H152.527V171.202ZM155.777 171.202H157.402V170.798H155.777V171.202ZM159.027 171.202H159.84V170.798H159.027V171.202ZM94.8398 171.404H95.6523V170.596H94.8398V171.404ZM97.2773 171.404H98.9023V170.596H97.2773V171.404ZM100.527 171.404H102.152V170.596H100.527V171.404ZM103.777 171.404H105.402V170.596H103.777V171.404ZM107.027 171.404H108.652V170.596H107.027V171.404ZM110.277 171.404H111.902V170.596H110.277V171.404ZM113.527 171.404H115.152V170.596H113.527V171.404ZM116.777 171.404H118.402V170.596H116.777V171.404ZM120.027 171.404H121.652V170.596H120.027V171.404ZM123.277 171.404H124.902V170.596H123.277V171.404ZM126.527 171.404H128.152V170.596H126.527V171.404ZM129.777 171.404H131.402V170.596H129.777V171.404ZM133.027 171.404H134.652V170.596H133.027V171.404ZM136.277 171.404H137.902V170.596H136.277V171.404ZM139.527 171.404H141.152V170.596H139.527V171.404ZM142.777 171.404H144.402V170.596H142.777V171.404ZM146.027 171.404H147.652V170.596H146.027V171.404ZM149.277 171.404H150.902V170.596H149.277V171.404ZM152.527 171.404H154.152V170.596H152.527V171.404ZM155.777 171.404H157.402V170.596H155.777V171.404ZM159.027 171.404H159.84V170.596H159.027V171.404Z" fill="#F8F8F8" fill-opacity="0.09" mask="url(#path-7-inside-2_240_252)"/>
</g>
<path d="M159.84 171V171.202H160.042V171H159.84ZM94.8398 171H94.6377V171.202H94.8398V171ZM158.668 62.1716L158.525 62.3145L158.668 62.1716ZM102.84 61.2021H151.84V60.7979H102.84V61.2021ZM159.638 69V171H160.042V69H159.638ZM159.84 170.798H94.8398V171.202H159.84V170.798ZM95.0419 171V69H94.6377V171H95.0419ZM151.84 61.2021C153.731 61.2021 155.129 61.2025 156.202 61.3467C157.269 61.4902 157.983 61.7725 158.525 62.3145L158.811 62.0287C158.182 61.3991 157.368 61.0956 156.256 60.9461C155.15 60.7975 153.72 60.7979 151.84 60.7979V61.2021ZM160.042 69C160.042 67.1201 160.042 65.6898 159.894 64.584C159.744 63.4723 159.441 62.6583 158.811 62.0287L158.525 62.3145C159.067 62.8565 159.35 63.571 159.493 64.6378C159.637 65.7105 159.638 67.1087 159.638 69H160.042ZM102.84 60.7979C100.96 60.7979 99.5297 60.7975 98.4238 60.9461C97.3122 61.0956 96.4981 61.3991 95.8685 62.0287L96.1543 62.3145C96.6963 61.7725 97.4108 61.4902 98.4777 61.3467C99.5503 61.2025 100.949 61.2021 102.84 61.2021V60.7979ZM95.0419 69C95.0419 67.1087 95.0424 65.7105 95.1866 64.6378C95.33 63.571 95.6124 62.8565 96.1543 62.3145L95.8685 62.0287C95.2389 62.6583 94.9354 63.4723 94.786 64.584C94.6373 65.6898 94.6377 67.1201 94.6377 69H95.0419Z" fill="url(#paint3_radial_240_252)"/>
</g>
<g filter="url(#filter2_b_240_252)">
<g clip-path="url(#clip2_240_252)">
<path d="M184.866 39C184.866 35.2288 184.866 33.3431 186.038 32.1716C187.209 31 189.095 31 192.866 31H241.866C245.637 31 247.523 31 248.695 32.1716C249.866 33.3431 249.866 35.2288 249.866 39V171H184.866V39Z" fill="url(#paint4_linear_240_252)"/>
<mask id="path-11-inside-3_240_252" fill="white">
<path d="M184.866 31H249.866V171H184.866V31Z"/>
</mask>
<path d="M184.866 171.202H185.679V170.798H184.866V171.202ZM187.304 171.202H188.929V170.798H187.304V171.202ZM190.554 171.202H192.179V170.798H190.554V171.202ZM193.804 171.202H195.429V170.798H193.804V171.202ZM197.054 171.202H198.679V170.798H197.054V171.202ZM200.304 171.202H201.929V170.798H200.304V171.202ZM203.554 171.202H205.179V170.798H203.554V171.202ZM206.804 171.202H208.429V170.798H206.804V171.202ZM210.054 171.202H211.679V170.798H210.054V171.202ZM213.304 171.202H214.929V170.798H213.304V171.202ZM216.554 171.202H218.179V170.798H216.554V171.202ZM219.804 171.202H221.429V170.798H219.804V171.202ZM223.054 171.202H224.679V170.798H223.054V171.202ZM226.304 171.202H227.929V170.798H226.304V171.202ZM229.554 171.202H231.179V170.798H229.554V171.202ZM232.804 171.202H234.429V170.798H232.804V171.202ZM236.054 171.202H237.679V170.798H236.054V171.202ZM239.304 171.202H240.929V170.798H239.304V171.202ZM242.554 171.202H244.179V170.798H242.554V171.202ZM245.804 171.202H247.429V170.798H245.804V171.202ZM249.054 171.202H249.866V170.798H249.054V171.202ZM184.866 171.404H185.679V170.596H184.866V171.404ZM187.304 171.404H188.929V170.596H187.304V171.404ZM190.554 171.404H192.179V170.596H190.554V171.404ZM193.804 171.404H195.429V170.596H193.804V171.404ZM197.054 171.404H198.679V170.596H197.054V171.404ZM200.304 171.404H201.929V170.596H200.304V171.404ZM203.554 171.404H205.179V170.596H203.554V171.404ZM206.804 171.404H208.429V170.596H206.804V171.404ZM210.054 171.404H211.679V170.596H210.054V171.404ZM213.304 171.404H214.929V170.596H213.304V171.404ZM216.554 171.404H218.179V170.596H216.554V171.404ZM219.804 171.404H221.429V170.596H219.804V171.404ZM223.054 171.404H224.679V170.596H223.054V171.404ZM226.304 171.404H227.929V170.596H226.304V171.404ZM229.554 171.404H231.179V170.596H229.554V171.404ZM232.804 171.404H234.429V170.596H232.804V171.404ZM236.054 171.404H237.679V170.596H236.054V171.404ZM239.304 171.404H240.929V170.596H239.304V171.404ZM242.554 171.404H244.179V170.596H242.554V171.404ZM245.804 171.404H247.429V170.596H245.804V171.404ZM249.054 171.404H249.866V170.596H249.054V171.404Z" fill="#F8F8F8" fill-opacity="0.09" mask="url(#path-11-inside-3_240_252)"/>
</g>
<path d="M249.866 171V171.202H250.068V171H249.866ZM184.866 171H184.664V171.202H184.866V171ZM248.695 32.1716L248.552 32.3145L248.695 32.1716ZM192.866 31.2021H241.866V30.7979H192.866V31.2021ZM249.664 39V171H250.068V39H249.664ZM249.866 170.798H184.866V171.202H249.866V170.798ZM185.068 171V39H184.664V171H185.068ZM241.866 31.2021C243.758 31.2021 245.156 31.2025 246.228 31.3467C247.295 31.4902 248.01 31.7725 248.552 32.3145L248.838 32.0287C248.208 31.3991 247.394 31.0956 246.282 30.9461C245.176 30.7975 243.746 30.7979 241.866 30.7979V31.2021ZM250.068 39C250.068 37.1201 250.069 35.6898 249.92 34.584C249.771 33.4723 249.467 32.6583 248.838 32.0287L248.552 32.3145C249.094 32.8565 249.376 33.571 249.519 34.6378C249.664 35.7105 249.664 37.1087 249.664 39H250.068ZM192.866 30.7979C190.986 30.7979 189.556 30.7975 188.45 30.9461C187.339 31.0956 186.524 31.3991 185.895 32.0287L186.181 32.3145C186.723 31.7725 187.437 31.4902 188.504 31.3467C189.577 31.2025 190.975 31.2021 192.866 31.2021V30.7979ZM185.068 39C185.068 37.1087 185.069 35.7105 185.213 34.6378C185.356 33.571 185.639 32.8565 186.181 32.3145L185.895 32.0287C185.265 32.6583 184.962 33.4723 184.812 34.584C184.664 35.6898 184.664 37.1201 184.664 39H185.068Z" fill="url(#paint5_radial_240_252)"/>
</g>
<g style="mix-blend-mode:overlay" filter="url(#filter3_bdi_240_252)">
<path d="M11.2838 122V120.097L16.3335 115.146C16.8165 114.659 17.219 114.225 17.5409 113.847C17.8629 113.468 18.1044 113.101 18.2654 112.746C18.4263 112.391 18.5068 112.012 18.5068 111.609C18.5068 111.15 18.4027 110.757 18.1943 110.43C17.986 110.099 17.6995 109.843 17.335 109.663C16.9704 109.483 16.5561 109.393 16.0921 109.393C15.6138 109.393 15.1948 109.493 14.835 109.692C14.4751 109.886 14.1958 110.163 13.9969 110.523C13.8028 110.883 13.7057 111.311 13.7057 111.808H11.1986C11.1986 110.885 11.4093 110.082 11.8307 109.401C12.2521 108.719 12.8321 108.191 13.5708 107.817C14.3141 107.443 15.1664 107.256 16.1276 107.256C17.103 107.256 17.96 107.438 18.6986 107.803C19.4372 108.167 20.0102 108.667 20.4173 109.301C20.8293 109.936 21.0352 110.66 21.0352 111.474C21.0352 112.019 20.9311 112.554 20.7227 113.08C20.5144 113.605 20.1475 114.187 19.6219 114.827C19.1011 115.466 18.3695 116.24 17.4273 117.149L14.9202 119.699V119.798H21.2554V122H11.2838ZM29.0821 122.277C27.9126 122.277 26.9088 121.981 26.0708 121.389C25.2374 120.793 24.5959 119.933 24.146 118.811C23.701 117.684 23.4784 116.328 23.4784 114.741C23.4832 113.155 23.7081 111.806 24.1531 110.693C24.603 109.576 25.2445 108.723 26.0779 108.136C26.9159 107.549 27.9173 107.256 29.0821 107.256C30.2469 107.256 31.2483 107.549 32.0864 108.136C32.9244 108.723 33.566 109.576 34.0111 110.693C34.4609 111.811 34.6858 113.16 34.6858 114.741C34.6858 116.332 34.4609 117.691 34.0111 118.818C33.566 119.94 32.9244 120.797 32.0864 121.389C31.253 121.981 30.2516 122.277 29.0821 122.277ZM29.0821 120.054C29.9912 120.054 30.7085 119.607 31.2341 118.712C31.7644 117.812 32.0296 116.489 32.0296 114.741C32.0296 113.586 31.9088 112.616 31.6673 111.83C31.4259 111.044 31.085 110.452 30.6446 110.054C30.2043 109.652 29.6834 109.45 29.0821 109.45C28.1778 109.45 27.4628 109.9 26.9372 110.8C26.4117 111.695 26.1465 113.009 26.1418 114.741C26.137 115.902 26.253 116.877 26.4898 117.668C26.7313 118.458 27.0722 119.055 27.5125 119.457C27.9529 119.855 28.4761 120.054 29.0821 120.054ZM37.0455 122V120.097L42.0953 115.146C42.5782 114.659 42.9807 114.225 43.3026 113.847C43.6246 113.468 43.8661 113.101 44.0271 112.746C44.1881 112.391 44.2686 112.012 44.2686 111.609C44.2686 111.15 44.1644 110.757 43.9561 110.43C43.7477 110.099 43.4613 109.843 43.0967 109.663C42.7321 109.483 42.3178 109.393 41.8538 109.393C41.3756 109.393 40.9565 109.493 40.5967 109.692C40.2368 109.886 39.9575 110.163 39.7586 110.523C39.5645 110.883 39.4674 111.311 39.4674 111.808H36.9603C36.9603 110.885 37.171 110.082 37.5924 109.401C38.0138 108.719 38.5938 108.191 39.3325 107.817C40.0758 107.443 40.9281 107.256 41.8893 107.256C42.8647 107.256 43.7217 107.438 44.4603 107.803C45.199 108.167 45.7719 108.667 46.1791 109.301C46.591 109.936 46.797 110.66 46.797 111.474C46.797 112.019 46.6928 112.554 46.4845 113.08C46.2761 113.605 45.9092 114.187 45.3836 114.827C44.8628 115.466 44.1312 116.24 43.189 117.149L40.6819 119.699V119.798H47.0171V122H37.0455ZM48.8921 119.301V117.206L55.064 107.455H56.8112V110.438H55.7458L51.591 117.021V117.135H60.2061V119.301H48.8921ZM55.8311 122V118.662L55.8595 117.724V107.455H58.3453V122H55.8311Z" fill="#F8F8F8" fill-opacity="0.29" shape-rendering="crispEdges"/>
</g>
<g style="mix-blend-mode:overlay" filter="url(#filter4_bdi_240_252)">
<path d="M103.056 90V88.0966L108.106 83.1463C108.589 82.6586 108.991 82.2254 109.313 81.8466C109.635 81.4678 109.877 81.1009 110.038 80.7457C110.199 80.3906 110.279 80.0118 110.279 79.6094C110.279 79.1501 110.175 78.7571 109.967 78.4304C109.758 78.099 109.472 77.8433 109.107 77.6634C108.743 77.4834 108.329 77.3935 107.865 77.3935C107.386 77.3935 106.967 77.4929 106.607 77.6918C106.248 77.8859 105.968 78.1629 105.769 78.5227C105.575 78.8826 105.478 79.3111 105.478 79.8082H102.971C102.971 78.8849 103.182 78.0824 103.603 77.4006C104.025 76.7187 104.605 76.1908 105.343 75.8168C106.087 75.4427 106.939 75.2557 107.9 75.2557C108.875 75.2557 109.732 75.438 110.471 75.8026C111.21 76.1671 111.783 76.6667 112.19 77.3011C112.602 77.9356 112.808 78.66 112.808 79.4744C112.808 80.0189 112.704 80.554 112.495 81.0795C112.287 81.6051 111.92 82.1875 111.394 82.8267C110.874 83.4659 110.142 84.2401 109.2 85.1491L106.693 87.6989V87.7983H113.028V90H103.056ZM120.855 90.277C119.685 90.277 118.681 89.9811 117.843 89.3892C117.01 88.7926 116.368 87.9332 115.919 86.8111C115.473 85.6842 115.251 84.3277 115.251 82.7415C115.256 81.1553 115.481 79.8059 115.926 78.6932C116.375 77.5758 117.017 76.7235 117.85 76.1364C118.688 75.5492 119.69 75.2557 120.855 75.2557C122.019 75.2557 123.021 75.5492 123.859 76.1364C124.697 76.7235 125.338 77.5758 125.784 78.6932C126.233 79.8106 126.458 81.16 126.458 82.7415C126.458 84.3324 126.233 85.6913 125.784 86.8182C125.338 87.9403 124.697 88.7973 123.859 89.3892C123.026 89.9811 122.024 90.277 120.855 90.277ZM120.855 88.054C121.764 88.054 122.481 87.6065 123.007 86.7116C123.537 85.812 123.802 84.4886 123.802 82.7415C123.802 81.5862 123.681 80.6155 123.44 79.8295C123.198 79.0436 122.857 78.4517 122.417 78.054C121.977 77.6515 121.456 77.4503 120.855 77.4503C119.95 77.4503 119.235 77.9001 118.71 78.7997C118.184 79.6946 117.919 81.0085 117.914 82.7415C117.91 83.9015 118.026 84.8769 118.262 85.6676C118.504 86.4583 118.845 87.0549 119.285 87.4574C119.725 87.8551 120.249 88.054 120.855 88.054ZM128.818 90V88.0966L133.868 83.1463C134.351 82.6586 134.753 82.2254 135.075 81.8466C135.397 81.4678 135.639 81.1009 135.8 80.7457C135.961 80.3906 136.041 80.0118 136.041 79.6094C136.041 79.1501 135.937 78.7571 135.729 78.4304C135.52 78.099 135.234 77.8433 134.869 77.6634C134.505 77.4834 134.09 77.3935 133.626 77.3935C133.148 77.3935 132.729 77.4929 132.369 77.6918C132.009 77.8859 131.73 78.1629 131.531 78.5227C131.337 78.8826 131.24 79.3111 131.24 79.8082H128.733C128.733 78.8849 128.943 78.0824 129.365 77.4006C129.786 76.7187 130.366 76.1908 131.105 75.8168C131.848 75.4427 132.701 75.2557 133.662 75.2557C134.637 75.2557 135.494 75.438 136.233 75.8026C136.971 76.1671 137.544 76.6667 137.952 77.3011C138.363 77.9356 138.569 78.66 138.569 79.4744C138.569 80.0189 138.465 80.554 138.257 81.0795C138.049 81.6051 137.682 82.1875 137.156 82.8267C136.635 83.4659 135.904 84.2401 134.961 85.1491L132.454 87.6989V87.7983H138.79V90H128.818ZM146.567 90.1989C145.871 90.1941 145.191 90.0734 144.528 89.8366C143.865 89.5952 143.269 89.2045 142.738 88.6648C142.208 88.1203 141.787 87.3982 141.474 86.4986C141.162 85.5942 141.008 84.4744 141.013 83.1392C141.013 81.8939 141.145 80.7836 141.41 79.8082C141.675 78.8329 142.057 78.009 142.554 77.3366C143.051 76.6596 143.65 76.1435 144.351 75.7884C145.056 75.4332 145.845 75.2557 146.716 75.2557C147.63 75.2557 148.439 75.4356 149.145 75.7955C149.855 76.1553 150.428 76.6477 150.863 77.2727C151.299 77.893 151.569 78.5938 151.673 79.375H149.081C148.948 78.8163 148.676 78.3712 148.264 78.0398C147.857 77.7036 147.341 77.5355 146.716 77.5355C145.707 77.5355 144.931 77.9735 144.386 78.8494C143.846 79.7254 143.574 80.928 143.569 82.4574H143.669C143.901 82.0407 144.202 81.6832 144.571 81.3849C144.94 81.0866 145.357 80.857 145.821 80.696C146.29 80.5303 146.784 80.4474 147.305 80.4474C148.157 80.4474 148.922 80.651 149.599 81.0582C150.281 81.4654 150.821 82.0265 151.219 82.7415C151.616 83.4517 151.813 84.2661 151.808 85.1847C151.813 86.1411 151.595 87.0005 151.155 87.7628C150.714 88.5204 150.101 89.117 149.315 89.5526C148.529 89.9882 147.613 90.2036 146.567 90.1989ZM146.552 88.0682C147.068 88.0682 147.53 87.9427 147.937 87.6918C148.345 87.4408 148.666 87.1023 148.903 86.6761C149.14 86.25 149.256 85.7718 149.251 85.2415C149.256 84.7206 149.142 84.2495 148.91 83.8281C148.683 83.4067 148.368 83.0729 147.966 82.8267C147.563 82.5805 147.104 82.4574 146.588 82.4574C146.204 82.4574 145.847 82.5308 145.515 82.6776C145.184 82.8243 144.895 83.0279 144.649 83.2884C144.403 83.544 144.209 83.8423 144.067 84.1832C143.929 84.5194 143.858 84.8793 143.854 85.2628C143.858 85.7694 143.977 86.2358 144.209 86.6619C144.441 87.0881 144.76 87.429 145.167 87.6847C145.575 87.9403 146.036 88.0682 146.552 88.0682Z" fill="#F8F8F8" fill-opacity="0.29" shape-rendering="crispEdges"/>
</g>
<g style="mix-blend-mode:overlay" filter="url(#filter5_bdi_240_252)">
<path d="M193.112 60V58.0966L198.162 53.1463C198.645 52.6586 199.047 52.2254 199.369 51.8466C199.691 51.4678 199.932 51.1009 200.093 50.7457C200.254 50.3906 200.335 50.0118 200.335 49.6094C200.335 49.1501 200.231 48.7571 200.022 48.4304C199.814 48.099 199.528 47.8433 199.163 47.6634C198.799 47.4834 198.384 47.3935 197.92 47.3935C197.442 47.3935 197.023 47.4929 196.663 47.6918C196.303 47.8859 196.024 48.1629 195.825 48.5227C195.631 48.8826 195.534 49.3111 195.534 49.8082H193.027C193.027 48.8849 193.237 48.0824 193.659 47.4006C194.08 46.7187 194.66 46.1908 195.399 45.8168C196.142 45.4427 196.995 45.2557 197.956 45.2557C198.931 45.2557 199.788 45.438 200.527 45.8026C201.265 46.1671 201.838 46.6667 202.245 47.3011C202.657 47.9356 202.863 48.66 202.863 49.4744C202.863 50.0189 202.759 50.554 202.551 51.0795C202.343 51.6051 201.976 52.1875 201.45 52.8267C200.929 53.4659 200.198 54.2401 199.255 55.1491L196.748 57.6989V57.7983H203.084V60H193.112ZM210.91 60.277C209.741 60.277 208.737 59.9811 207.899 59.3892C207.066 58.7926 206.424 57.9332 205.974 56.8111C205.529 55.6842 205.307 54.3277 205.307 52.7415C205.311 51.1553 205.536 49.8059 205.981 48.6932C206.431 47.5758 207.073 46.7235 207.906 46.1364C208.744 45.5492 209.745 45.2557 210.91 45.2557C212.075 45.2557 213.076 45.5492 213.915 46.1364C214.753 46.7235 215.394 47.5758 215.839 48.6932C216.289 49.8106 216.514 51.16 216.514 52.7415C216.514 54.3324 216.289 55.6913 215.839 56.8182C215.394 57.9403 214.753 58.7973 213.915 59.3892C213.081 59.9811 212.08 60.277 210.91 60.277ZM210.91 58.054C211.819 58.054 212.537 57.6065 213.062 56.7116C213.593 55.812 213.858 54.4886 213.858 52.7415C213.858 51.5862 213.737 50.6155 213.495 49.8295C213.254 49.0436 212.913 48.4517 212.473 48.054C212.032 47.6515 211.512 47.4503 210.91 47.4503C210.006 47.4503 209.291 47.9001 208.765 48.7997C208.24 49.6946 207.975 51.0085 207.97 52.7415C207.965 53.9015 208.081 54.8769 208.318 55.6676C208.559 56.4583 208.9 57.0549 209.341 57.4574C209.781 57.8551 210.304 58.054 210.91 58.054ZM218.874 60V58.0966L223.923 53.1463C224.406 52.6586 224.809 52.2254 225.131 51.8466C225.453 51.4678 225.694 51.1009 225.855 50.7457C226.016 50.3906 226.097 50.0118 226.097 49.6094C226.097 49.1501 225.993 48.7571 225.784 48.4304C225.576 48.099 225.289 47.8433 224.925 47.6634C224.56 47.4834 224.146 47.3935 223.682 47.3935C223.204 47.3935 222.785 47.4929 222.425 47.6918C222.065 47.8859 221.786 48.1629 221.587 48.5227C221.393 48.8826 221.296 49.3111 221.296 49.8082H218.788C218.788 48.8849 218.999 48.0824 219.421 47.4006C219.842 46.7187 220.422 46.1908 221.161 45.8168C221.904 45.4427 222.756 45.2557 223.717 45.2557C224.693 45.2557 225.55 45.438 226.288 45.8026C227.027 46.1671 227.6 46.6667 228.007 47.3011C228.419 47.9356 228.625 48.66 228.625 49.4744C228.625 50.0189 228.521 50.554 228.313 51.0795C228.104 51.6051 227.737 52.1875 227.212 52.8267C226.691 53.4659 225.959 54.2401 225.017 55.1491L222.51 57.6989V57.7983H228.845V60H218.874ZM236.466 60.1989C235.41 60.1989 234.473 60.0213 233.653 59.6662C232.839 59.3111 232.2 58.8258 231.736 58.2102C231.277 57.59 231.049 56.8868 231.054 56.1009C231.049 55.4901 231.182 54.929 231.452 54.4176C231.722 53.9062 232.086 53.4801 232.546 53.1392C233.01 52.7936 233.526 52.5734 234.094 52.4787V52.3793C233.346 52.2135 232.74 51.8324 232.276 51.2358C231.816 50.6345 231.589 49.9408 231.594 49.1548C231.589 48.4067 231.797 47.7391 232.219 47.152C232.64 46.5649 233.218 46.1032 233.952 45.767C234.686 45.4261 235.524 45.2557 236.466 45.2557C237.399 45.2557 238.23 45.4261 238.959 45.767C239.693 46.1032 240.27 46.5649 240.692 47.152C241.118 47.7391 241.331 48.4067 241.331 49.1548C241.331 49.9408 241.097 50.6345 240.628 51.2358C240.164 51.8324 239.565 52.2135 238.831 52.3793V52.4787C239.399 52.5734 239.911 52.7936 240.365 53.1392C240.824 53.4801 241.189 53.9062 241.459 54.4176C241.734 54.929 241.871 55.4901 241.871 56.1009C241.871 56.8868 241.639 57.59 241.175 58.2102C240.711 58.8258 240.072 59.3111 239.257 59.6662C238.448 60.0213 237.517 60.1989 236.466 60.1989ZM236.466 58.1676C237.011 58.1676 237.484 58.0753 237.886 57.8906C238.289 57.7012 238.601 57.4361 238.824 57.0952C239.046 56.7543 239.16 56.3613 239.165 55.9162C239.16 55.4522 239.039 55.0426 238.803 54.6875C238.571 54.3277 238.251 54.0459 237.844 53.8423C237.441 53.6387 236.982 53.5369 236.466 53.5369C235.945 53.5369 235.481 53.6387 235.074 53.8423C234.667 54.0459 234.345 54.3277 234.108 54.6875C233.876 55.0426 233.762 55.4522 233.767 55.9162C233.762 56.3613 233.871 56.7543 234.094 57.0952C234.316 57.4313 234.629 57.6941 235.031 57.8835C235.439 58.0729 235.917 58.1676 236.466 58.1676ZM236.466 51.5412C236.911 51.5412 237.304 51.4512 237.645 51.2713C237.991 51.0914 238.263 50.8404 238.462 50.5185C238.661 50.1965 238.762 49.8248 238.767 49.4034C238.762 48.9867 238.663 48.6222 238.469 48.3097C238.275 47.9924 238.005 47.7486 237.659 47.5781C237.314 47.4029 236.916 47.3153 236.466 47.3153C236.007 47.3153 235.602 47.4029 235.252 47.5781C234.906 47.7486 234.636 47.9924 234.442 48.3097C234.252 48.6222 234.16 48.9867 234.165 49.4034C234.16 49.8248 234.255 50.1965 234.449 50.5185C234.648 50.8357 234.92 51.0866 235.266 51.2713C235.616 51.4512 236.016 51.5412 236.466 51.5412Z" fill="#F8F8F8" fill-opacity="0.29" shape-rendering="crispEdges"/>
</g>
<g filter="url(#filter6_b_240_252)">
<g clip-path="url(#clip3_240_252)">
<path d="M276.893 9C276.893 5.22876 276.893 3.34315 278.064 2.17157C279.236 1 281.121 1 284.893 1H333.893C337.664 1 339.549 1 340.721 2.17157C341.893 3.34315 341.893 5.22876 341.893 9V171H276.893V9Z" fill="url(#paint6_linear_240_252)"/>
<mask id="path-18-inside-4_240_252" fill="white">
<path d="M276.893 1H341.893V171H276.893V1Z"/>
</mask>
<path d="M276.893 171.202H277.705V170.798H276.893V171.202ZM279.33 171.202H280.955V170.798H279.33V171.202ZM282.58 171.202H284.205V170.798H282.58V171.202ZM285.83 171.202H287.455V170.798H285.83V171.202ZM289.08 171.202H290.705V170.798H289.08V171.202ZM292.33 171.202H293.955V170.798H292.33V171.202ZM295.58 171.202H297.205V170.798H295.58V171.202ZM298.83 171.202H300.455V170.798H298.83V171.202ZM302.08 171.202H303.705V170.798H302.08V171.202ZM305.33 171.202H306.955V170.798H305.33V171.202ZM308.58 171.202H310.205V170.798H308.58V171.202ZM311.83 171.202H313.455V170.798H311.83V171.202ZM315.08 171.202H316.705V170.798H315.08V171.202ZM318.33 171.202H319.955V170.798H318.33V171.202ZM321.58 171.202H323.205V170.798H321.58V171.202ZM324.83 171.202H326.455V170.798H324.83V171.202ZM328.08 171.202H329.705V170.798H328.08V171.202ZM331.33 171.202H332.955V170.798H331.33V171.202ZM334.58 171.202H336.205V170.798H334.58V171.202ZM337.83 171.202H339.455V170.798H337.83V171.202ZM341.08 171.202H341.893V170.798H341.08V171.202ZM276.893 171.404H277.705V170.596H276.893V171.404ZM279.33 171.404H280.955V170.596H279.33V171.404ZM282.58 171.404H284.205V170.596H282.58V171.404ZM285.83 171.404H287.455V170.596H285.83V171.404ZM289.08 171.404H290.705V170.596H289.08V171.404ZM292.33 171.404H293.955V170.596H292.33V171.404ZM295.58 171.404H297.205V170.596H295.58V171.404ZM298.83 171.404H300.455V170.596H298.83V171.404ZM302.08 171.404H303.705V170.596H302.08V171.404ZM305.33 171.404H306.955V170.596H305.33V171.404ZM308.58 171.404H310.205V170.596H308.58V171.404ZM311.83 171.404H313.455V170.596H311.83V171.404ZM315.08 171.404H316.705V170.596H315.08V171.404ZM318.33 171.404H319.955V170.596H318.33V171.404ZM321.58 171.404H323.205V170.596H321.58V171.404ZM324.83 171.404H326.455V170.596H324.83V171.404ZM328.08 171.404H329.705V170.596H328.08V171.404ZM331.33 171.404H332.955V170.596H331.33V171.404ZM334.58 171.404H336.205V170.596H334.58V171.404ZM337.83 171.404H339.455V170.596H337.83V171.404ZM341.08 171.404H341.893V170.596H341.08V171.404Z" fill="#F8F8F8" fill-opacity="0.09" mask="url(#path-18-inside-4_240_252)"/>
</g>
<path d="M341.893 171V171.202H342.095V171H341.893ZM276.893 171H276.69V171.202H276.893V171ZM340.721 2.17157L340.578 2.31448L340.721 2.17157ZM284.893 1.20211H333.893V0.797895H284.893V1.20211ZM341.69 9V171H342.095V9H341.69ZM341.893 170.798H276.893V171.202H341.893V170.798ZM277.095 171V9H276.69V171H277.095ZM333.893 1.20211C335.784 1.20211 337.182 1.20253 338.255 1.34675C339.322 1.49018 340.036 1.77251 340.578 2.31448L340.864 2.02866C340.234 1.39907 339.42 1.0956 338.309 0.946143C337.203 0.797465 335.772 0.797895 333.893 0.797895V1.20211ZM342.095 9C342.095 7.1201 342.095 5.68984 341.946 4.58398C341.797 3.47232 341.494 2.65826 340.864 2.02866L340.578 2.31448C341.12 2.85646 341.402 3.571 341.546 4.63784C341.69 5.7105 341.69 7.10867 341.69 9H342.095ZM284.893 0.797895C283.013 0.797895 281.582 0.797465 280.477 0.946143C279.365 1.0956 278.551 1.39907 277.921 2.02866L278.207 2.31448C278.749 1.77251 279.464 1.49018 280.53 1.34675C281.603 1.20253 283.001 1.20211 284.893 1.20211V0.797895ZM277.095 9C277.095 7.10867 277.095 5.7105 277.239 4.63784C277.383 3.571 277.665 2.85646 278.207 2.31448L277.921 2.02866C277.292 2.65826 276.988 3.47232 276.839 4.58398C276.69 5.68984 276.69 7.1201 276.69 9H277.095Z" fill="url(#paint7_radial_240_252)"/>
</g>
<g style="mix-blend-mode:overlay" filter="url(#filter7_bdi_240_252)">
<path d="M285.121 30V28.0966L290.17 23.1463C290.653 22.6586 291.056 22.2254 291.378 21.8466C291.7 21.4678 291.941 21.1009 292.102 20.7457C292.263 20.3906 292.344 20.0118 292.344 19.6094C292.344 19.1501 292.24 18.7571 292.031 18.4304C291.823 18.099 291.536 17.8433 291.172 17.6634C290.807 17.4834 290.393 17.3935 289.929 17.3935C289.451 17.3935 289.032 17.4929 288.672 17.6918C288.312 17.8859 288.033 18.1629 287.834 18.5227C287.64 18.8826 287.543 19.3111 287.543 19.8082H285.036C285.036 18.8849 285.246 18.0824 285.668 17.4006C286.089 16.7187 286.669 16.1908 287.408 15.8168C288.151 15.4427 289.003 15.2557 289.964 15.2557C290.94 15.2557 291.797 15.438 292.536 15.8026C293.274 16.1671 293.847 16.6667 294.254 17.3011C294.666 17.9356 294.872 18.66 294.872 19.4744C294.872 20.0189 294.768 20.554 294.56 21.0795C294.351 21.6051 293.984 22.1875 293.459 22.8267C292.938 23.4659 292.206 24.2401 291.264 25.1491L288.757 27.6989V27.7983H295.092V30H285.121ZM302.919 30.277C301.75 30.277 300.746 29.9811 299.908 29.3892C299.074 28.7926 298.433 27.9332 297.983 26.8111C297.538 25.6842 297.315 24.3277 297.315 22.7415C297.32 21.1553 297.545 19.8059 297.99 18.6932C298.44 17.5758 299.081 16.7235 299.915 16.1364C300.753 15.5492 301.754 15.2557 302.919 15.2557C304.084 15.2557 305.085 15.5492 305.923 16.1364C306.761 16.7235 307.403 17.5758 307.848 18.6932C308.298 19.8106 308.523 21.16 308.523 22.7415C308.523 24.3324 308.298 25.6913 307.848 26.8182C307.403 27.9403 306.761 28.7973 305.923 29.3892C305.09 29.9811 304.089 30.277 302.919 30.277ZM302.919 28.054C303.828 28.054 304.545 27.6065 305.071 26.7116C305.601 25.812 305.866 24.4886 305.866 22.7415C305.866 21.5862 305.746 20.6155 305.504 19.8295C305.263 19.0436 304.922 18.4517 304.482 18.054C304.041 17.6515 303.52 17.4503 302.919 17.4503C302.015 17.4503 301.3 17.9001 300.774 18.7997C300.249 19.6946 299.983 21.0085 299.979 22.7415C299.974 23.9015 300.09 24.8769 300.327 25.6676C300.568 26.4583 300.909 27.0549 301.349 27.4574C301.79 27.8551 302.313 28.054 302.919 28.054ZM316.103 30.1989C315.08 30.1989 314.171 30.0237 313.375 29.6733C312.585 29.3229 311.96 28.8352 311.5 28.2102C311.041 27.5852 310.797 26.8632 310.769 26.044H313.439C313.463 26.437 313.593 26.7803 313.83 27.0739C314.067 27.3627 314.382 27.5876 314.775 27.7486C315.167 27.9096 315.608 27.9901 316.096 27.9901C316.616 27.9901 317.078 27.9001 317.48 27.7202C317.883 27.5355 318.198 27.2798 318.425 26.9531C318.652 26.6264 318.764 26.25 318.759 25.8239C318.764 25.3835 318.65 24.9953 318.418 24.6591C318.186 24.3229 317.85 24.0601 317.409 23.8707C316.974 23.6813 316.448 23.5866 315.833 23.5866H314.547V21.5554H315.833C316.339 21.5554 316.782 21.4678 317.161 21.2926C317.544 21.1174 317.845 20.8712 318.063 20.554C318.281 20.232 318.387 19.8603 318.382 19.4389C318.387 19.027 318.295 18.6695 318.105 18.3665C317.921 18.0587 317.658 17.8196 317.317 17.6491C316.981 17.4787 316.586 17.3935 316.131 17.3935C315.686 17.3935 315.274 17.474 314.895 17.6349C314.516 17.7959 314.211 18.0256 313.979 18.3239C313.747 18.6174 313.624 18.9678 313.61 19.375H311.074C311.093 18.5606 311.328 17.8456 311.777 17.2301C312.232 16.6098 312.838 16.1269 313.596 15.7812C314.353 15.4309 315.203 15.2557 316.145 15.2557C317.116 15.2557 317.959 15.438 318.674 15.8026C319.393 16.1624 319.95 16.6477 320.343 17.2585C320.736 17.8693 320.932 18.544 320.932 19.2827C320.937 20.1018 320.695 20.7884 320.208 21.3423C319.725 21.8963 319.09 22.2585 318.304 22.429V22.5426C319.327 22.6847 320.111 23.0634 320.655 23.679C321.204 24.2898 321.477 25.0497 321.472 25.9588C321.472 26.7732 321.24 27.5024 320.776 28.1463C320.317 28.7855 319.682 29.2874 318.873 29.652C318.068 30.0166 317.144 30.1989 316.103 30.1989ZM329.286 30.277C328.117 30.277 327.113 29.9811 326.275 29.3892C325.442 28.7926 324.8 27.9332 324.35 26.8111C323.905 25.6842 323.683 24.3277 323.683 22.7415C323.687 21.1553 323.912 19.8059 324.357 18.6932C324.807 17.5758 325.449 16.7235 326.282 16.1364C327.12 15.5492 328.121 15.2557 329.286 15.2557C330.451 15.2557 331.452 15.5492 332.29 16.1364C333.129 16.7235 333.77 17.5758 334.215 18.6932C334.665 19.8106 334.89 21.16 334.89 22.7415C334.89 24.3324 334.665 25.6913 334.215 26.8182C333.77 27.9403 333.129 28.7973 332.29 29.3892C331.457 29.9811 330.456 30.277 329.286 30.277ZM329.286 28.054C330.195 28.054 330.913 27.6065 331.438 26.7116C331.969 25.812 332.234 24.4886 332.234 22.7415C332.234 21.5862 332.113 20.6155 331.871 19.8295C331.63 19.0436 331.289 18.4517 330.849 18.054C330.408 17.6515 329.888 17.4503 329.286 17.4503C328.382 17.4503 327.667 17.9001 327.141 18.7997C326.616 19.6946 326.351 21.0085 326.346 22.7415C326.341 23.9015 326.457 24.8769 326.694 25.6676C326.935 26.4583 327.276 27.0549 327.717 27.4574C328.157 27.8551 328.68 28.054 329.286 28.054Z" fill="#F8F8F8" fill-opacity="0.29" shape-rendering="crispEdges"/>
</g>
<path fill-rule="evenodd" clip-rule="evenodd" d="M344 172H0V171H344V172Z" fill="url(#paint8_linear_240_252)"/>
<defs>
<filter id="filter0_b_240_252" x="-21.3679" y="66.5452" width="113.91" height="128.91" filterUnits="userSpaceOnUse" color-interpolation-filters="sRGB">
<feFlood flood-opacity="0" result="BackgroundImageFix"/>
<feGaussianBlur in="BackgroundImageFix" stdDeviation="12.1263"/>
<feComposite in2="SourceAlpha" operator="in" result="effect1_backgroundBlur_240_252"/>
<feBlend mode="normal" in="SourceGraphic" in2="effect1_backgroundBlur_240_252" result="shape"/>
</filter>
<filter id="filter1_b_240_252" x="70.3851" y="36.5452" width="113.91" height="158.91" filterUnits="userSpaceOnUse" color-interpolation-filters="sRGB">
<feFlood flood-opacity="0" result="BackgroundImageFix"/>
<feGaussianBlur in="BackgroundImageFix" stdDeviation="12.1263"/>
<feComposite in2="SourceAlpha" operator="in" result="effect1_backgroundBlur_240_252"/>
<feBlend mode="normal" in="SourceGraphic" in2="effect1_backgroundBlur_240_252" result="shape"/>
</filter>
<filter id="filter2_b_240_252" x="160.411" y="6.54521" width="113.91" height="188.91" filterUnits="userSpaceOnUse" color-interpolation-filters="sRGB">
<feFlood flood-opacity="0" result="BackgroundImageFix"/>
<feGaussianBlur in="BackgroundImageFix" stdDeviation="12.1263"/>
<feComposite in2="SourceAlpha" operator="in" result="effect1_backgroundBlur_240_252"/>
<feBlend mode="normal" in="SourceGraphic" in2="effect1_backgroundBlur_240_252" result="shape"/>
</filter>
<filter id="filter3_bdi_240_252" x="3.11143" y="99.1684" width="65.1819" height="31.1958" filterUnits="userSpaceOnUse" color-interpolation-filters="sRGB">
<feFlood flood-opacity="0" result="BackgroundImageFix"/>
<feGaussianBlur in="BackgroundImageFix" stdDeviation="4.04365"/>
<feComposite in2="SourceAlpha" operator="in" result="effect1_backgroundBlur_240_252"/>
<feColorMatrix in="SourceAlpha" type="matrix" values="0 0 0 0 0 0 0 0 0 0 0 0 0 0 0 0 0 0 127 0" result="hardAlpha"/>
<feOffset dy="0.404365"/>
<feComposite in2="hardAlpha" operator="out"/>
<feColorMatrix type="matrix" values="0 0 0 0 1 0 0 0 0 1 0 0 0 0 1 0 0 0 0.4 0"/>
<feBlend mode="normal" in2="effect1_backgroundBlur_240_252" result="effect2_dropShadow_240_252"/>
<feBlend mode="normal" in="SourceGraphic" in2="effect2_dropShadow_240_252" result="shape"/>
<feColorMatrix in="SourceAlpha" type="matrix" values="0 0 0 0 0 0 0 0 0 0 0 0 0 0 0 0 0 0 127 0" result="hardAlpha"/>
<feOffset dx="0.404365" dy="0.404365"/>
<feGaussianBlur stdDeviation="0.404365"/>
<feComposite in2="hardAlpha" operator="arithmetic" k2="-1" k3="1"/>
<feColorMatrix type="matrix" values="0 0 0 0 0 0 0 0 0 0 0 0 0 0 0 0 0 0 0.4 0"/>
<feBlend mode="normal" in2="shape" result="effect3_innerShadow_240_252"/>
</filter>
<filter id="filter4_bdi_240_252" x="94.8839" y="67.1684" width="65.0183" height="31.1958" filterUnits="userSpaceOnUse" color-interpolation-filters="sRGB">
<feFlood flood-opacity="0" result="BackgroundImageFix"/>
<feGaussianBlur in="BackgroundImageFix" stdDeviation="4.04365"/>
<feComposite in2="SourceAlpha" operator="in" result="effect1_backgroundBlur_240_252"/>
<feColorMatrix in="SourceAlpha" type="matrix" values="0 0 0 0 0 0 0 0 0 0 0 0 0 0 0 0 0 0 127 0" result="hardAlpha"/>
<feOffset dy="0.404365"/>
<feComposite in2="hardAlpha" operator="out"/>
<feColorMatrix type="matrix" values="0 0 0 0 1 0 0 0 0 1 0 0 0 0 1 0 0 0 0.4 0"/>
<feBlend mode="normal" in2="effect1_backgroundBlur_240_252" result="effect2_dropShadow_240_252"/>
<feBlend mode="normal" in="SourceGraphic" in2="effect2_dropShadow_240_252" result="shape"/>
<feColorMatrix in="SourceAlpha" type="matrix" values="0 0 0 0 0 0 0 0 0 0 0 0 0 0 0 0 0 0 127 0" result="hardAlpha"/>
<feOffset dx="0.404365" dy="0.404365"/>
<feGaussianBlur stdDeviation="0.404365"/>
<feComposite in2="hardAlpha" operator="arithmetic" k2="-1" k3="1"/>
<feColorMatrix type="matrix" values="0 0 0 0 0 0 0 0 0 0 0 0 0 0 0 0 0 0 0.4 0"/>
<feBlend mode="normal" in2="shape" result="effect3_innerShadow_240_252"/>
</filter>
<filter id="filter5_bdi_240_252" x="184.94" y="37.1684" width="65.0183" height="31.1958" filterUnits="userSpaceOnUse" color-interpolation-filters="sRGB">
<feFlood flood-opacity="0" result="BackgroundImageFix"/>
<feGaussianBlur in="BackgroundImageFix" stdDeviation="4.04365"/>
<feComposite in2="SourceAlpha" operator="in" result="effect1_backgroundBlur_240_252"/>
<feColorMatrix in="SourceAlpha" type="matrix" values="0 0 0 0 0 0 0 0 0 0 0 0 0 0 0 0 0 0 127 0" result="hardAlpha"/>
<feOffset dy="0.404365"/>
<feComposite in2="hardAlpha" operator="out"/>
<feColorMatrix type="matrix" values="0 0 0 0 1 0 0 0 0 1 0 0 0 0 1 0 0 0 0.4 0"/>
<feBlend mode="normal" in2="effect1_backgroundBlur_240_252" result="effect2_dropShadow_240_252"/>
<feBlend mode="normal" in="SourceGraphic" in2="effect2_dropShadow_240_252" result="shape"/>
<feColorMatrix in="SourceAlpha" type="matrix" values="0 0 0 0 0 0 0 0 0 0 0 0 0 0 0 0 0 0 127 0" result="hardAlpha"/>
<feOffset dx="0.404365" dy="0.404365"/>
<feGaussianBlur stdDeviation="0.404365"/>
<feComposite in2="hardAlpha" operator="arithmetic" k2="-1" k3="1"/>
<feColorMatrix type="matrix" values="0 0 0 0 0 0 0 0 0 0 0 0 0 0 0 0 0 0 0.4 0"/>
<feBlend mode="normal" in2="shape" result="effect3_innerShadow_240_252"/>
</filter>
<filter id="filter6_b_240_252" x="252.438" y="-23.4548" width="113.91" height="218.91" filterUnits="userSpaceOnUse" color-interpolation-filters="sRGB">
<feFlood flood-opacity="0" result="BackgroundImageFix"/>
<feGaussianBlur in="BackgroundImageFix" stdDeviation="12.1263"/>
<feComposite in2="SourceAlpha" operator="in" result="effect1_backgroundBlur_240_252"/>
<feBlend mode="normal" in="SourceGraphic" in2="effect1_backgroundBlur_240_252" result="shape"/>
</filter>
<filter id="filter7_bdi_240_252" x="276.948" y="7.16844" width="66.0291" height="31.1958" filterUnits="userSpaceOnUse" color-interpolation-filters="sRGB">
<feFlood flood-opacity="0" result="BackgroundImageFix"/>
<feGaussianBlur in="BackgroundImageFix" stdDeviation="4.04365"/>
<feComposite in2="SourceAlpha" operator="in" result="effect1_backgroundBlur_240_252"/>
<feColorMatrix in="SourceAlpha" type="matrix" values="0 0 0 0 0 0 0 0 0 0 0 0 0 0 0 0 0 0 127 0" result="hardAlpha"/>
<feOffset dy="0.404365"/>
<feComposite in2="hardAlpha" operator="out"/>
<feColorMatrix type="matrix" values="0 0 0 0 1 0 0 0 0 1 0 0 0 0 1 0 0 0 0.4 0"/>
<feBlend mode="normal" in2="effect1_backgroundBlur_240_252" result="effect2_dropShadow_240_252"/>
<feBlend mode="normal" in="SourceGraphic" in2="effect2_dropShadow_240_252" result="shape"/>
<feColorMatrix in="SourceAlpha" type="matrix" values="0 0 0 0 0 0 0 0 0 0 0 0 0 0 0 0 0 0 127 0" result="hardAlpha"/>
<feOffset dx="0.404365" dy="0.404365"/>
<feGaussianBlur stdDeviation="0.404365"/>
<feComposite in2="hardAlpha" operator="arithmetic" k2="-1" k3="1"/>
<feColorMatrix type="matrix" values="0 0 0 0 0 0 0 0 0 0 0 0 0 0 0 0 0 0 0.4 0"/>
<feBlend mode="normal" in2="shape" result="effect3_innerShadow_240_252"/>
</filter>
<linearGradient id="paint0_linear_240_252" x1="49.1461" y1="160.425" x2="74.9233" y2="113.27" gradientUnits="userSpaceOnUse">
<stop stop-color="white" stop-opacity="0.12"/>
<stop offset="1" stop-color="white" stop-opacity="0.23"/>
</linearGradient>
<radialGradient id="paint1_radial_240_252" cx="0" cy="0" r="1" gradientUnits="userSpaceOnUse" gradientTransform="translate(35.6845 111.087) rotate(90.0933) scale(59.9131 48.6794)">
<stop stop-color="#F8F8F8"/>
<stop offset="1" stop-color="#F8F8F8" stop-opacity="0"/>
</radialGradient>
<linearGradient id="paint2_linear_240_252" x1="140.899" y1="156.46" x2="181.346" y2="102.647" gradientUnits="userSpaceOnUse">
<stop stop-color="white" stop-opacity="0.12"/>
<stop offset="1" stop-color="white" stop-opacity="0.23"/>
</linearGradient>
<radialGradient id="paint3_radial_240_252" cx="0" cy="0" r="1" gradientUnits="userSpaceOnUse" gradientTransform="translate(127.437 88.6196) rotate(90.0679) scale(82.3805 48.6794)">
<stop stop-color="#F8F8F8"/>
<stop offset="1" stop-color="#F8F8F8" stop-opacity="0"/>
</radialGradient>
<linearGradient id="paint4_linear_240_252" x1="230.925" y1="152.494" x2="284.463" y2="96.5287" gradientUnits="userSpaceOnUse">
<stop stop-color="white" stop-opacity="0.12"/>
<stop offset="1" stop-color="white" stop-opacity="0.23"/>
</linearGradient>
<radialGradient id="paint5_radial_240_252" cx="0" cy="0" r="1" gradientUnits="userSpaceOnUse" gradientTransform="translate(217.464 66.1522) rotate(90.0533) scale(104.848 48.6794)">
<stop stop-color="#F8F8F8"/>
<stop offset="1" stop-color="#F8F8F8" stop-opacity="0"/>
</radialGradient>
<linearGradient id="paint6_linear_240_252" x1="322.952" y1="148.529" x2="387.303" y2="93.131" gradientUnits="userSpaceOnUse">
<stop stop-color="white" stop-opacity="0.12"/>
<stop offset="1" stop-color="white" stop-opacity="0.23"/>
</linearGradient>
<radialGradient id="paint7_radial_240_252" cx="0" cy="0" r="1" gradientUnits="userSpaceOnUse" gradientTransform="translate(309.49 43.6848) rotate(90.0439) scale(127.315 48.6794)">
<stop stop-color="#F8F8F8"/>
<stop offset="1" stop-color="#F8F8F8" stop-opacity="0"/>
</radialGradient>
<linearGradient id="paint8_linear_240_252" x1="344" y1="171.998" x2="-14" y2="171.998" gradientUnits="userSpaceOnUse">
<stop stop-color="white" stop-opacity="0"/>
<stop offset="0.21091" stop-color="white" stop-opacity="0.31604"/>
<stop offset="0.480188" stop-color="white" stop-opacity="0.76"/>
<stop offset="0.748833" stop-color="white" stop-opacity="0.233846"/>
<stop offset="1" stop-color="white" stop-opacity="0"/>
</linearGradient>
<clipPath id="clip0_240_252">
<path d="M3.08691 99C3.08691 95.2288 3.08691 93.3431 4.25849 92.1716C5.43006 91 7.31568 91 11.0869 91H60.0869C63.8582 91 65.7438 91 66.9153 92.1716C68.0869 93.3431 68.0869 95.2288 68.0869 99V171H3.08691V99Z" fill="white"/>
</clipPath>
<clipPath id="clip1_240_252">
<path d="M94.8398 69C94.8398 65.2288 94.8398 63.3431 96.0114 62.1716C97.183 61 99.0686 61 102.84 61H151.84C155.611 61 157.497 61 158.668 62.1716C159.84 63.3431 159.84 65.2288 159.84 69V171H94.8398V69Z" fill="white"/>
</clipPath>
<clipPath id="clip2_240_252">
<path d="M184.866 39C184.866 35.2288 184.866 33.3431 186.038 32.1716C187.209 31 189.095 31 192.866 31H241.866C245.637 31 247.523 31 248.695 32.1716C249.866 33.3431 249.866 35.2288 249.866 39V171H184.866V39Z" fill="white"/>
</clipPath>
<clipPath id="clip3_240_252">
<path d="M276.893 9C276.893 5.22876 276.893 3.34315 278.064 2.17157C279.236 1 281.121 1 284.893 1H333.893C337.664 1 339.549 1 340.721 2.17157C341.893 3.34315 341.893 5.22876 341.893 9V171H276.893V9Z" fill="white"/>
</clipPath>
</defs>
</svg>
