<svg width="46" height="20" viewBox="0 0 46 20" fill="none" xmlns="http://www.w3.org/2000/svg">
<path d="M45.63 14.9078H43.2399L43.6342 13.3008H38.8458L38.4515 14.9078H36.1376V14.5778C36.1733 14.3963 36.2041 14.2066 36.2496 14.0037C36.6698 12.2712 37.7895 10.5585 39.7236 10.5585C40.4895 10.5585 41.2505 10.8555 41.1467 11.933H43.9944C44.1064 11.4297 44.2946 10.575 43.7575 9.78802C43.1506 8.93334 41.9272 8.59015 40.3419 8.59015C39.2141 8.59015 37.5639 8.7733 36.1376 9.72037V0.980555H45.6268V14.9095L45.63 14.9078ZM40.0303 17.2623C39.4884 17.3613 38.948 17.429 38.4353 17.429C37.0674 17.429 36.1165 16.7822 36.0954 15.2741H40.5155L40.0303 17.2623ZM34.562 9.30623L34.5572 11.3027C33.8951 12.2316 33.4846 13.2463 33.2931 14.0631C33.2201 14.3485 33.1698 14.6273 33.1422 14.9078H31.7484L32.9394 9.15774L28.9283 9.15444L25.3374 14.9095H25.0761V0.980555H34.5604V9.30623H34.562ZM29.2658 14.9078H27.8395L29.9992 11.4528L29.2658 14.9078ZM23.5071 9.14289H21.1331L19.504 14.9078H16.9873C18.2708 14.426 19.0513 13.5037 19.2915 12.1376C19.491 11.075 19.3953 10.3754 18.9702 9.85237C18.3309 9.07359 17.0506 9.13959 15.9115 9.13959C15.7119 9.13959 14.0293 9.14289 14.0293 9.14289V0.978906H23.5071V9.14289ZM21.9883 14.9078L22.9878 11.3027L23.0235 14.9078H21.9899H21.9883ZM15.0856 13.5367H15.0824C14.9899 13.5417 14.8974 13.5499 14.7919 13.5499C14.654 13.5499 14.5453 13.5549 14.443 13.5549L13.8362 13.5499L14.1169 12.4939L14.2499 11.9693L14.568 10.7417C14.7092 10.7417 14.8471 10.7367 14.9801 10.7367H15.4507C16.2523 10.7367 16.7602 10.7829 16.9451 11.0453C17.0863 11.2416 17.0685 11.5832 16.9013 12.0996C16.6157 12.9922 16.2523 13.4443 15.0856 13.5351M12.4488 9.65272L12.2995 10.1527L10.943 14.7445L10.8895 14.9062H6.424L6.07513 14.1587L10.8895 9.15608H7.79674L4.03224 13.2793L5.25246 9.15608H2.97104V0.978906H12.4488V9.65437V9.65272ZM35.7806 0.607666V9.98106C35.4594 10.2401 35.1851 10.5173 34.9304 10.8143V0.607666H24.7208V9.14289H23.8754V0.607666H13.6642V9.15608H12.8188V0.607666H2.60595V10.3507L0 19.1845H2.29116L3.4416 15.2725H3.77262L5.67272 19.1845H8.44093L6.59762 15.2725H10.7824L9.62058 19.1845H12.1243L13.2699 15.284H13.82V15.2725H19.3953L18.2903 19.173H20.8151L21.886 15.2725H23.0219L23.0527 19.173H25.1703L27.601 15.2725H29.1928L28.3717 19.173H30.8576L31.664 15.2725H33.1017C33.0449 16.4819 33.3483 17.5791 34.1369 18.3199C35.1008 19.2208 36.579 19.3924 37.6742 19.3924C39.1719 19.3924 40.7264 19.1746 42.2906 18.8149L43.1523 15.2725H45.9902V0.607666H35.7806Z" fill="white"/>
</svg>
