<svg width="41" height="41" viewBox="0 0 41 41" fill="none" xmlns="http://www.w3.org/2000/svg">
<path d="M20.0633 20.5771L25.0633 15.5771M38.3966 20.5771C38.3966 30.7023 30.1885 38.9104 20.0633 38.9104C9.93809 38.9104 1.72998 30.7023 1.72998 20.5771C1.72998 10.4519 9.93809 2.24376 20.0633 2.24376M31.73 20.5771C31.73 27.0204 26.5066 32.2438 20.0633 32.2438C13.62 32.2438 8.39665 27.0204 8.39665 20.5771C8.39665 14.1338 13.62 8.91042 20.0633 8.91042M25.0633 14.7438V7.44304C25.0633 7.21871 25.1538 7.00385 25.3142 6.84705L30.3142 1.96069C30.8419 1.44501 31.73 1.81887 31.73 2.55668V8.07709C31.73 8.53733 32.1031 8.91042 32.5633 8.91042H38.0837C38.8215 8.91042 39.1954 9.79853 38.6797 10.3262L33.7934 15.3262C33.6366 15.4866 33.4217 15.5771 33.1974 15.5771H25.8966C25.4364 15.5771 25.0633 15.204 25.0633 14.7438Z" stroke="#B2B2B2" stroke-width="2" stroke-linecap="round"/>
</svg>
